<svg width="207" height="13" viewBox="0 0 207 13" fill="none" xmlns="http://www.w3.org/2000/svg">
<path d="M10.276 5.324C10.276 2.65 8.12 0.494 5.446 0.494C2.786 0.494 0.616 2.65 0.616 5.324C0.616 7.984 2.786 10.154 5.446 10.154C8.12 10.154 10.276 7.984 10.276 5.324ZM9.842 5.324C9.842 7.732 7.868 9.72 5.446 9.72C3.038 9.72 1.05 7.732 1.05 5.324C1.05 2.902 3.038 0.928 5.446 0.928C7.868 0.928 9.842 2.902 9.842 5.324ZM7.168 7.032C6.804 7.522 6.146 7.844 5.474 7.844C4.214 7.844 3.08 6.78 3.08 5.31C3.08 3.798 4.214 2.79 5.474 2.79C6.132 2.79 6.804 3.098 7.168 3.588L7.518 3.238C7.028 2.664 6.342 2.328 5.474 2.328C3.864 2.328 2.562 3.588 2.562 5.296C2.562 7.004 3.864 8.306 5.474 8.306C6.342 8.306 7.028 7.97 7.532 7.382L7.168 7.032ZM21.6875 10V8.964H17.1095C19.7135 6.906 21.6455 5.17 21.6455 3.266C21.6455 1.404 20.0635 0.521999 18.5095 0.521999C17.1935 0.521999 15.9755 1.04 15.2615 1.992L15.9755 2.734C16.5215 2.034 17.3895 1.558 18.5095 1.558C19.4755 1.558 20.4695 2.062 20.4695 3.266C20.4695 4.876 18.6355 6.43 15.2755 9.062V10H21.6875ZM27.034 10.168C29.582 10.168 30.604 7.606 30.604 5.338C30.604 3.056 29.582 0.521999 27.034 0.521999C24.472 0.521999 23.464 3.056 23.464 5.338C23.464 7.606 24.472 10.168 27.034 10.168ZM27.034 9.132C25.256 9.132 24.654 7.2 24.654 5.338C24.654 3.476 25.256 1.558 27.034 1.558C28.812 1.558 29.414 3.476 29.414 5.338C29.414 7.2 28.812 9.132 27.034 9.132ZM38.4903 10V8.964H33.9123C36.5163 6.906 38.4483 5.17 38.4483 3.266C38.4483 1.404 36.8663 0.521999 35.3123 0.521999C33.9963 0.521999 32.7783 1.04 32.0643 1.992L32.7783 2.734C33.3243 2.034 34.1923 1.558 35.3123 1.558C36.2783 1.558 37.2723 2.062 37.2723 3.266C37.2723 4.876 35.4383 6.43 32.0783 9.062V10H38.4903ZM43.8367 10.168C46.3847 10.168 47.4067 7.606 47.4067 5.338C47.4067 3.056 46.3847 0.521999 43.8367 0.521999C41.2747 0.521999 40.2667 3.056 40.2667 5.338C40.2667 7.606 41.2747 10.168 43.8367 10.168ZM43.8367 9.132C42.0587 9.132 41.4567 7.2 41.4567 5.338C41.4567 3.476 42.0587 1.558 43.8367 1.558C45.6147 1.558 46.2167 3.476 46.2167 5.338C46.2167 7.2 45.6147 9.132 43.8367 9.132ZM51.905 7.074V6.15H48.545V7.074H51.905ZM59.4903 10V8.964H54.9123C57.5163 6.906 59.4483 5.17 59.4483 3.266C59.4483 1.404 57.8663 0.521999 56.3123 0.521999C54.9963 0.521999 53.7783 1.04 53.0643 1.992L53.7783 2.734C54.3243 2.034 55.1923 1.558 56.3123 1.558C57.2783 1.558 58.2723 2.062 58.2723 3.266C58.2723 4.876 56.4383 6.43 53.0783 9.062V10H59.4903ZM64.8367 10.168C67.3847 10.168 68.4067 7.606 68.4067 5.338C68.4067 3.056 67.3847 0.521999 64.8367 0.521999C62.2747 0.521999 61.2667 3.056 61.2667 5.338C61.2667 7.606 62.2747 10.168 64.8367 10.168ZM64.8367 9.132C63.0587 9.132 62.4567 7.2 62.4567 5.338C62.4567 3.476 63.0587 1.558 64.8367 1.558C66.6147 1.558 67.2167 3.476 67.2167 5.338C67.2167 7.2 66.6147 9.132 64.8367 9.132ZM76.293 10V8.964H71.715C74.319 6.906 76.251 5.17 76.251 3.266C76.251 1.404 74.669 0.521999 73.115 0.521999C71.799 0.521999 70.581 1.04 69.867 1.992L70.581 2.734C71.127 2.034 71.995 1.558 73.115 1.558C74.081 1.558 75.075 2.062 75.075 3.266C75.075 4.876 73.241 6.43 69.881 9.062V10H76.293ZM84.5235 10V8.964H79.9455C82.5495 6.906 84.4815 5.17 84.4815 3.266C84.4815 1.404 82.8995 0.521999 81.3455 0.521999C80.0295 0.521999 78.8115 1.04 78.0975 1.992L78.8115 2.734C79.3575 2.034 80.2255 1.558 81.3455 1.558C82.3115 1.558 83.3055 2.062 83.3055 3.266C83.3055 4.876 81.4715 6.43 78.1115 9.062V10H84.5235ZM94.557 10C96.265 10 97.259 8.978 97.259 7.48C97.259 6.36 96.433 5.338 95.439 5.184C96.293 5.002 97.077 4.218 97.077 3.042C97.077 1.642 96.083 0.661999 94.459 0.661999H90.301V10H94.557ZM94.263 4.708H91.463V1.698H94.263C95.313 1.698 95.873 2.37 95.873 3.21C95.873 4.064 95.313 4.708 94.263 4.708ZM94.333 8.964H91.463V5.744H94.333C95.467 5.744 96.055 6.5 96.055 7.354C96.055 8.348 95.411 8.964 94.333 8.964ZM99.5957 2.272C99.9877 2.272 100.296 1.964 100.296 1.572C100.296 1.18 99.9877 0.857999 99.5957 0.857999C99.2037 0.857999 98.8817 1.18 98.8817 1.572C98.8817 1.964 99.2037 2.272 99.5957 2.272ZM100.114 10V3.238H99.0637V10H100.114ZM103.258 10V0.661999H102.208V10H103.258ZM105.885 2.272C106.277 2.272 106.585 1.964 106.585 1.572C106.585 1.18 106.277 0.857999 105.885 0.857999C105.493 0.857999 105.171 1.18 105.171 1.572C105.171 1.964 105.493 2.272 105.885 2.272ZM106.403 10V3.238H105.353V10H106.403ZM114.111 10V5.254C114.111 3.784 113.369 3.07 111.969 3.07C110.947 3.07 110.023 3.644 109.547 4.218V3.238H108.497V10H109.547V5.058C109.953 4.512 110.723 4.008 111.549 4.008C112.459 4.008 113.075 4.372 113.075 5.576V10H114.111ZM119.176 10.168C121.234 10.168 122.522 8.572 122.522 6.612C122.522 4.652 121.234 3.07 119.176 3.07C117.118 3.07 115.83 4.652 115.83 6.612C115.83 8.572 117.118 10.168 119.176 10.168ZM119.176 9.23C117.734 9.23 116.936 7.998 116.936 6.612C116.936 5.24 117.734 4.008 119.176 4.008C120.618 4.008 121.416 5.24 121.416 6.612C121.416 7.998 120.618 9.23 119.176 9.23ZM127.188 10L130.002 3.238H128.868L126.614 8.782L124.374 3.238H123.226L126.04 10H127.188ZM136.375 10V5.352C136.375 3.714 135.199 3.07 133.757 3.07C132.651 3.07 131.783 3.434 131.055 4.19L131.545 4.918C132.147 4.26 132.805 3.98 133.617 3.98C134.597 3.98 135.325 4.498 135.325 5.394V6.612C134.779 5.996 134.009 5.702 133.085 5.702C131.937 5.702 130.733 6.402 130.733 7.928C130.733 9.398 131.951 10.168 133.085 10.168C133.995 10.168 134.779 9.846 135.325 9.23V10H136.375ZM133.477 9.412C132.483 9.412 131.797 8.796 131.797 7.928C131.797 7.074 132.483 6.458 133.477 6.458C134.205 6.458 134.919 6.738 135.325 7.284V8.572C134.919 9.132 134.205 9.412 133.477 9.412ZM146.414 10C148.122 10 149.116 8.978 149.116 7.48C149.116 6.36 148.29 5.338 147.296 5.184C148.15 5.002 148.934 4.218 148.934 3.042C148.934 1.642 147.94 0.661999 146.316 0.661999H142.158V10H146.414ZM146.12 4.708H143.32V1.698H146.12C147.17 1.698 147.73 2.37 147.73 3.21C147.73 4.064 147.17 4.708 146.12 4.708ZM146.19 8.964H143.32V5.744H146.19C147.324 5.744 147.912 6.5 147.912 7.354C147.912 8.348 147.268 8.964 146.19 8.964ZM151.453 2.272C151.845 2.272 152.153 1.964 152.153 1.572C152.153 1.18 151.845 0.857999 151.453 0.857999C151.061 0.857999 150.739 1.18 150.739 1.572C150.739 1.964 151.061 2.272 151.453 2.272ZM151.971 10V3.238H150.921V10H151.971ZM155.116 10V0.661999H154.066V10H155.116ZM157.742 2.272C158.134 2.272 158.442 1.964 158.442 1.572C158.442 1.18 158.134 0.857999 157.742 0.857999C157.35 0.857999 157.028 1.18 157.028 1.572C157.028 1.964 157.35 2.272 157.742 2.272ZM158.26 10V3.238H157.21V10H158.26ZM162.497 12.674C163.309 12.674 163.953 12.24 163.953 11.554C163.953 10.98 163.561 10.616 163.029 10.616C162.847 10.616 162.651 10.658 162.511 10.77L162.749 10.154C164.331 10.084 165.157 9.202 165.157 8.124C165.157 5.492 160.971 6.458 160.971 4.988C160.971 4.386 161.545 3.924 162.469 3.924C163.351 3.924 164.079 4.288 164.485 4.778L164.975 4.05C164.443 3.504 163.631 3.07 162.469 3.07C160.859 3.07 159.963 3.952 159.963 5.016C159.963 7.522 164.149 6.514 164.149 8.152C164.149 8.824 163.575 9.314 162.539 9.314C161.615 9.314 160.761 8.866 160.313 8.348L159.781 9.104C160.383 9.734 161.181 10.084 162.133 10.154L161.811 11.022L162.273 11.288C162.399 11.134 162.609 11.05 162.805 11.05C163.155 11.05 163.323 11.246 163.323 11.54C163.323 11.918 162.931 12.128 162.469 12.128C162.091 12.128 161.699 12.002 161.349 11.722L161.083 12.254C161.363 12.478 161.895 12.674 162.497 12.674ZM167.395 2.272C167.787 2.272 168.095 1.964 168.095 1.572C168.095 1.18 167.787 0.857999 167.395 0.857999C167.003 0.857999 166.681 1.18 166.681 1.572C166.681 1.964 167.003 2.272 167.395 2.272ZM167.913 10V3.238H166.863V10H167.913ZM179.219 10V5.114C179.219 3.756 178.561 3.07 177.329 3.07C176.349 3.07 175.439 3.714 175.061 4.33C174.865 3.63 174.277 3.07 173.255 3.07C172.247 3.07 171.351 3.784 171.057 4.218V3.238H170.007V10H171.057V5.058C171.421 4.512 172.149 4.008 172.835 4.008C173.731 4.008 174.081 4.554 174.081 5.408V10H175.131V5.044C175.481 4.498 176.223 4.008 176.923 4.008C177.805 4.008 178.169 4.554 178.169 5.408V10H179.219ZM192.973 10L189.221 0.661999H187.779L184.013 10H185.343L186.169 7.914H190.817L191.643 10H192.973ZM190.481 6.892H186.519L188.493 1.852L190.481 6.892ZM194.712 10.14C195.132 10.14 195.482 9.79 195.482 9.37C195.482 8.95 195.132 8.6 194.712 8.6C194.292 8.6 193.942 8.95 193.942 9.37C193.942 9.79 194.292 10.14 194.712 10.14ZM200.374 12.674C201.186 12.674 201.83 12.24 201.83 11.554C201.83 10.98 201.438 10.616 200.906 10.616C200.724 10.616 200.528 10.658 200.388 10.77L200.626 10.168C203.02 10.098 203.902 8.74 203.902 7.424C203.902 3.938 198.372 5.142 198.372 3.042C198.372 2.16 199.184 1.558 200.29 1.558C201.312 1.558 202.292 1.894 202.992 2.678L203.692 1.824C202.908 0.998 201.802 0.508 200.388 0.508C198.54 0.508 197.168 1.572 197.168 3.112C197.168 6.444 202.698 5.1 202.698 7.508C202.698 8.236 202.166 9.132 200.5 9.132C199.184 9.132 198.176 8.488 197.574 7.788L196.874 8.684C197.574 9.468 198.624 10.042 200.01 10.154L199.688 11.022L200.15 11.288C200.276 11.134 200.486 11.05 200.682 11.05C201.032 11.05 201.2 11.246 201.2 11.54C201.2 11.918 200.808 12.128 200.346 12.128C199.968 12.128 199.576 12.002 199.226 11.722L198.96 12.254C199.24 12.478 199.772 12.674 200.374 12.674ZM206.155 10.14C206.575 10.14 206.925 9.79 206.925 9.37C206.925 8.95 206.575 8.6 206.155 8.6C205.735 8.6 205.385 8.95 205.385 9.37C205.385 9.79 205.735 10.14 206.155 10.14Z" fill="#868A9A"/>
</svg>
