<svg width="18" height="18" viewBox="0 0 18 18" fill="none" xmlns="http://www.w3.org/2000/svg">
<path d="M8.82074 4.61143C8.89406 4.46285 9.10594 4.46286 9.17926 4.61144L9.89351 6.05865C9.92263 6.11765 9.97891 6.15855 10.044 6.16801L11.6411 6.40008C11.8051 6.4239 11.8706 6.62541 11.7519 6.74106L10.5962 7.86756C10.5491 7.91348 10.5276 7.97965 10.5387 8.0445L10.8116 9.63515C10.8396 9.79845 10.6682 9.92298 10.5215 9.84588L9.09302 9.09488C9.03479 9.06427 8.96521 9.06427 8.90698 9.09488L7.47849 9.84588C7.33183 9.92298 7.16042 9.79845 7.18843 9.63514L7.46125 8.0445C7.47237 7.97965 7.45087 7.91348 7.40376 7.86756L6.24809 6.74106C6.12944 6.62541 6.19491 6.4239 6.35888 6.40008L7.95598 6.16801C8.02109 6.15855 8.07737 6.11765 8.10649 6.05865L8.82074 4.61143Z" fill="currentColor"/>
<path d="M2.25 2.25C2.25 1.00736 3.25736 0 4.5 0H13.5C14.7426 0 15.75 1.00736 15.75 2.25V17.4375C15.75 17.6449 15.6358 17.8356 15.4529 17.9334C15.27 18.0313 15.0481 18.0206 14.8755 17.9055L9 14.7385L3.12452 17.9055C2.95191 18.0206 2.72998 18.0313 2.54708 17.9334C2.36418 17.8356 2.25 17.6449 2.25 17.4375V2.25ZM4.5 1.125C3.87868 1.125 3.375 1.62868 3.375 2.25V16.3865L8.68798 13.5945C8.87692 13.4685 9.12308 13.4685 9.31202 13.5945L14.625 16.3865V2.25C14.625 1.62868 14.1213 1.125 13.5 1.125H4.5Z" fill="currentColor"/>
</svg>
