<svg width="15" height="14" viewBox="0 0 15 14" fill="none" xmlns="http://www.w3.org/2000/svg">
<path fill-rule="evenodd" clip-rule="evenodd" d="M8.21449 13.0838C7.84576 13.4525 7.22143 13.4525 6.85269 13.0838L0.929867 7.16097C0.371035 6.60214 0.79369 5.68753 1.61077 5.68753L4.26693 5.68753L4.26693 4.81253C4.26693 4.32928 4.6848 3.93753 5.20026 3.93753L9.86693 3.93753C10.3824 3.93753 10.8003 4.32928 10.8003 4.81253L10.8003 5.68753L13.4564 5.68753C14.2735 5.68753 14.6962 6.60214 14.1373 7.16098L8.21449 13.0838ZM1.61077 6.56253L7.53359 12.4854L13.4564 6.56253L10.8003 6.56253C10.2848 6.56253 9.86693 6.17078 9.86693 5.68753L9.86693 4.81253L5.20026 4.81253L5.20026 5.68753C5.20026 6.17078 4.78239 6.56253 4.26693 6.56253L1.61077 6.56253Z" fill="#0069B4"/>
<path fill-rule="evenodd" clip-rule="evenodd" d="M10.8003 2.1875C10.8003 2.67075 10.3824 3.0625 9.86696 3.0625L5.20029 3.0625C4.68483 3.0625 4.26696 2.67075 4.26696 2.1875L4.26696 1.3125C4.26696 0.82925 4.68483 0.437499 5.20029 0.4375L9.86696 0.4375C10.3824 0.4375 10.8003 0.829251 10.8003 1.3125L10.8003 2.1875ZM5.20029 2.1875L9.86696 2.1875L9.86696 1.3125L5.20029 1.3125L5.20029 2.1875Z" fill="#0069B4"/>
</svg>
