<svg width="22" height="22" viewBox="0 0 22 22" fill="none" xmlns="http://www.w3.org/2000/svg">
<path fill-rule="evenodd" clip-rule="evenodd" d="M6.875 15.8125C6.875 15.4328 7.1828 15.125 7.5625 15.125H19.9375C20.3172 15.125 20.625 15.4328 20.625 15.8125C20.625 16.1922 20.3172 16.5 19.9375 16.5H7.5625C7.1828 16.5 6.875 16.1922 6.875 15.8125Z" fill="currentColor"/>
<path fill-rule="evenodd" clip-rule="evenodd" d="M6.875 10.3125C6.875 9.9328 7.1828 9.625 7.5625 9.625H19.9375C20.3172 9.625 20.625 9.9328 20.625 10.3125C20.625 10.6922 20.3172 11 19.9375 11H7.5625C7.1828 11 6.875 10.6922 6.875 10.3125Z" fill="currentColor"/>
<path fill-rule="evenodd" clip-rule="evenodd" d="M6.875 4.8125C6.875 4.4328 7.1828 4.125 7.5625 4.125H19.9375C20.3172 4.125 20.625 4.4328 20.625 4.8125C20.625 5.1922 20.3172 5.5 19.9375 5.5H7.5625C7.1828 5.5 6.875 5.1922 6.875 4.8125Z" fill="currentColor"/>
<path fill-rule="evenodd" clip-rule="evenodd" d="M5.29864 2.95136C5.56712 3.21985 5.56712 3.65515 5.29864 3.92364L3.23614 5.98614C2.96765 6.25462 2.53235 6.25462 2.26386 5.98614L1.57636 5.29864C1.30788 5.03015 1.30788 4.59485 1.57636 4.32636C1.84485 4.05788 2.28015 4.05788 2.54864 4.32636L2.75 4.52773L4.32636 2.95136C4.59485 2.68288 5.03015 2.68288 5.29864 2.95136Z" fill="currentColor"/>
<path fill-rule="evenodd" clip-rule="evenodd" d="M5.29864 8.45136C5.56712 8.71985 5.56712 9.15515 5.29864 9.42364L3.23614 11.4861C2.96765 11.7546 2.53235 11.7546 2.26386 11.4861L1.57636 10.7986C1.30788 10.5302 1.30788 10.0948 1.57636 9.82636C1.84485 9.55788 2.28015 9.55788 2.54864 9.82636L2.75 10.0277L4.32636 8.45136C4.59485 8.18288 5.03015 8.18288 5.29864 8.45136Z" fill="currentColor"/>
<path fill-rule="evenodd" clip-rule="evenodd" d="M5.29864 13.9514C5.56712 14.2198 5.56712 14.6552 5.29864 14.9236L3.23614 16.9861C2.96765 17.2546 2.53235 17.2546 2.26386 16.9861L1.57636 16.2986C1.30788 16.0302 1.30788 15.5948 1.57636 15.3264C1.84485 15.0579 2.28015 15.0579 2.54864 15.3264L2.75 15.5277L4.32636 13.9514C4.59485 13.6829 5.03015 13.6829 5.29864 13.9514Z" fill="currentColor"/>
</svg>
