<svg width="24" height="16" viewBox="0 0 24 16" fill="none" xmlns="http://www.w3.org/2000/svg">
<path fill-rule="evenodd" clip-rule="evenodd" d="M11.1221 4.57665C11.4061 4.29263 11.8666 4.29263 12.1506 4.57665L15.0597 7.48574C15.3437 7.76976 15.3437 8.23024 15.0597 8.51426C14.7757 8.79828 14.3152 8.79828 14.0312 8.51426L12.3636 6.8467V12.3636C12.3636 12.7653 12.038 13.0909 11.6364 13.0909C11.2347 13.0909 10.9091 12.7653 10.9091 12.3636V6.8467L9.24153 8.51426C8.95751 8.79828 8.49703 8.79828 8.21301 8.51426C7.929 8.23024 7.929 7.76976 8.21301 7.48574L11.1221 4.57665Z" fill="#F39200"/>
<path d="M6.40838 1.95174C7.7262 0.815208 9.56158 0 11.6364 0C15.5494 0 18.7975 2.90827 19.1501 6.66034C21.4663 6.98779 23.2727 8.92591 23.2727 11.3058C23.2727 13.9193 21.0943 16 18.4545 16H5.5C2.48369 16 0 13.6233 0 10.6446C0 8.08017 1.84125 5.95653 4.2796 5.41818C4.48697 4.16248 5.29433 2.91253 6.40838 1.95174ZM7.35834 3.05322C6.2579 4.00228 5.68182 5.14662 5.68182 6.04298V6.69469L5.03401 6.76589C3.00176 6.98927 1.45455 8.65841 1.45455 10.6446C1.45455 12.7781 3.2445 14.5455 5.5 14.5455H18.4545C20.3335 14.5455 21.8182 13.0741 21.8182 11.3058C21.8182 9.5375 20.3335 8.06612 18.4545 8.06612H17.7273V7.33884C17.7273 4.10997 15.0215 1.45455 11.6364 1.45455C9.94557 1.45455 8.44004 2.12033 7.35834 3.05322Z" fill="#F39200"/>
</svg>
