<svg width="88" height="22" viewBox="0 0 88 22" fill="currentColor" xmlns="http://www.w3.org/2000/svg">
<path d="M5.39443 14.6245C4.18864 15.1918 3.23668 16.2634 2.91937 17.5872C2.72898 17.3351 2.5386 16.9569 2.3482 16.4526C2.15782 15.9483 2.09436 15.444 2.09436 14.8766V14.3093H5.33096C5.52136 14.3093 5.52136 14.5615 5.39443 14.6245Z" fill="currentColor"/>
<path d="M9.07634 14.6245C8.94946 14.5615 8.94946 14.3093 9.13983 14.3093H13.4553C13.6457 14.3093 13.7092 14.5615 13.5188 14.6245C12.6303 15.0027 11.8687 15.6961 11.4245 16.5786C11.361 16.7047 11.2341 16.7047 11.1706 16.5786C10.7264 15.6961 9.96486 15.0027 9.07634 14.6245Z" fill="currentColor"/>
<path d="M7.23522 15.0659C9.13913 15.0659 10.7256 16.6419 10.7256 18.533C10.7256 20.4241 9.13913 22 7.23522 22C5.33133 22 3.74475 20.4241 3.74475 18.533C3.74475 16.6419 5.33133 15.0659 7.23522 15.0659ZM7.23522 20.6131C8.37758 20.6131 9.26602 19.7306 9.26602 18.596C9.26602 17.4613 8.37758 16.5788 7.23522 16.5788C6.09288 16.5788 5.2044 17.4613 5.2044 18.596C5.2044 19.6676 6.15635 20.6131 7.23522 20.6131Z" fill="currentColor"/>
<path d="M15.4214 15.0659C17.3253 15.0659 18.9119 16.6419 18.9119 18.533C18.9119 20.4241 17.3253 22 15.4214 22C13.5175 22 11.9309 20.4241 11.9309 18.533C11.8675 16.6419 13.4541 15.0659 15.4214 15.0659ZM15.4214 20.6131C16.5637 20.6131 17.4522 19.7306 17.4522 18.596C17.4522 17.4613 16.5637 16.5788 15.4214 16.5788C14.2791 16.5788 13.3906 17.4613 13.3906 18.596C13.3906 19.6676 14.2791 20.6131 15.4214 20.6131Z" fill="currentColor"/>
<path d="M80.6612 14.9399C82.565 14.9399 84.1513 16.5159 84.1513 18.407C84.1513 20.2981 82.565 21.8741 80.6612 21.8741C78.7572 21.8741 77.1707 20.2981 77.1707 18.407C77.1707 16.5159 78.7572 14.9399 80.6612 14.9399ZM80.6612 20.4242C81.8035 20.4242 82.6917 19.5417 82.6917 18.407C82.6917 17.2723 81.8035 16.3898 80.6612 16.3898C79.5188 16.3898 78.6304 17.2723 78.6304 18.407C78.6304 19.5417 79.5823 20.4242 80.6612 20.4242Z" fill="currentColor"/>
<path d="M55.1503 14.9399C57.0542 14.9399 58.6407 16.5159 58.6407 18.407C58.6407 20.2981 57.0542 21.8741 55.1503 21.8741C53.2464 21.8741 51.6598 20.2981 51.6598 18.407C51.6598 16.5159 53.2464 14.9399 55.1503 14.9399ZM55.1503 20.4242C56.2926 20.4242 57.1811 19.5417 57.1811 18.407C57.1811 17.2723 56.2926 16.3898 55.1503 16.3898C54.0079 16.3898 53.1195 17.2723 53.1195 18.407C53.1195 19.5417 54.0714 20.4242 55.1503 20.4242Z" fill="currentColor"/>
<path d="M47.2796 14.9399C49.1836 14.9399 50.7702 16.5159 50.7702 18.407C50.7702 20.2981 49.1836 21.8741 47.2796 21.8741C45.3758 21.8741 43.7892 20.2981 43.7892 18.407C43.7257 16.5159 45.3123 14.9399 47.2796 14.9399ZM47.2796 20.4242C48.422 20.4242 49.3104 19.5417 49.3104 18.407C49.3104 17.2723 48.422 16.3898 47.2796 16.3898C46.1373 16.3898 45.2488 17.2723 45.2488 18.407C45.2488 19.5417 46.1373 20.4242 47.2796 20.4242Z" fill="currentColor"/>
<path d="M63.7172 1.38696H67.3981C67.4616 1.38696 67.525 1.44998 67.525 1.51303V2.83681C67.525 2.89984 67.4616 2.96289 67.3981 2.96289H63.6538C63.5903 2.96289 63.5269 2.89984 63.5269 2.83681V1.51303C63.5903 1.44998 63.6538 1.38696 63.7172 1.38696Z" fill="currentColor"/>
<path d="M17.1983 14.5616C17.008 14.4985 17.0714 14.2464 17.2618 14.2464H58.2589V14.6877H60.48V13.3639H61.3686L61.9398 0.567328C61.9398 0.252145 62.1936 0 62.5109 0H70.1265C71.3323 0 72.538 0.441263 73.4266 1.26074L73.6804 1.51289C73.6804 1.51289 78.1228 3.65615 78.2497 3.84527C79.392 5.54727 76.4728 1.57592 78.7574 8.76214L83.8982 9.70773C86.3726 10.275 87.0074 10.8424 87.0074 10.8424L87.1982 12.6704C87.9597 13.3009 87.833 14.0573 87.8963 14.6877C87.8963 14.8137 87.8963 14.9398 87.8963 15.0028C87.8963 15.0659 87.8963 15.1289 87.8963 15.192V16.8939C87.8963 17.7134 87.1982 18.4068 86.3726 18.4068H84.4689C84.4689 16.2005 82.6919 14.4355 80.4709 14.4355C78.2497 14.4355 76.4728 16.2005 76.4728 18.4068H59.1474C59.1474 18.1546 59.1474 17.9025 59.0839 17.7134C59.0839 17.6503 59.0204 17.5243 59.0204 17.4613C58.9569 17.3352 58.9569 17.2091 58.8935 17.02C58.8301 16.8939 58.8301 16.8309 58.7666 16.7048C58.7031 16.6418 58.7031 16.5788 58.6397 16.4527C57.9415 15.192 56.6723 14.3724 55.1492 14.3724C54.7049 14.3724 54.2607 14.4985 53.8164 14.6246C52.4203 15.1289 51.4049 16.3266 51.2145 17.8395C51.0241 16.3266 50.0087 15.0659 48.549 14.6246C48.1048 14.4985 47.724 14.3724 47.2163 14.3724C46.7721 14.3724 46.3278 14.4985 45.947 14.6246C44.3605 15.192 43.2181 16.6418 43.2181 18.3438H41.9489H41.7585V18.2807C41.3143 18.2177 40.997 17.9025 40.87 17.4613H29.4467V17.5874H19.8003C19.7368 17.5874 19.6734 17.5243 19.6734 17.4613C19.4195 16.2005 18.4676 15.1289 17.1983 14.5616ZM72.538 10.6532H73.1727C73.2996 10.6532 73.4266 10.5272 73.4266 10.4011C73.4266 10.275 73.2996 10.1489 73.1727 10.1489H72.538C72.4111 10.1489 72.2842 10.275 72.2842 10.4011C72.2842 10.5272 72.3477 10.6532 72.538 10.6532ZM72.0938 8.38392C72.0938 8.82521 72.4746 9.20343 72.9189 9.20343H77.1074C77.6785 9.20343 78.0593 8.69914 77.9324 8.19485L77.2343 5.61029C77.1074 5.23207 76.79 4.97992 76.4093 4.97992H72.9189C72.4746 4.97992 72.0938 5.35816 72.0938 5.79941V8.38392ZM71.3323 17.0831C71.3323 16.5157 70.888 16.0745 70.3803 16.0745C69.8726 16.0745 69.4283 16.5157 69.4283 17.0831H71.3323ZM71.3323 15.4441C71.3323 14.8767 70.888 14.4355 70.3803 14.4355C69.8726 14.4355 69.4283 14.8767 69.4283 15.4441H71.3323ZM63.3359 2.89971C63.3359 3.08882 63.4629 3.21489 63.6532 3.21489H67.3975C67.588 3.21489 67.7149 3.08882 67.7149 2.89971V1.57592C67.7149 1.38681 67.588 1.26074 67.3975 1.26074H63.6532C63.4629 1.26074 63.3359 1.38681 63.3359 1.57592V2.89971Z" fill="currentColor"/>
<path d="M0 12.0403H58.9571V13.7423H0V12.0403Z" fill="currentColor"/>
</svg>
