<svg width="51" height="43" viewBox="0 0 51 43" fill="none" xmlns="http://www.w3.org/2000/svg">
<path d="M49.4375 37.0938L29.4688 2.96875C27.875 0.34375 24.0312 0.34375 22.5312 2.96875L2.46875 37.0938C0.96875 39.7188 2.84375 43 5.9375 43H45.9688C49.0625 43 50.9375 39.7188 49.4375 37.0938ZM23.75 13.75C23.75 12.5312 24.6875 11.5 26 11.5C27.2188 11.5 28.25 12.5312 28.25 13.75V25.75C28.25 27.0625 27.2188 28 26 28C24.875 28 23.75 27.0625 23.75 25.75V13.75ZM26 37C24.3125 37 23 35.6875 23 34.0938C23 32.5 24.3125 31.1875 26 31.1875C27.5938 31.1875 28.9062 32.5 28.9062 34.0938C28.9062 35.6875 27.5938 37 26 37Z" fill="#E30A17"/>
</svg>
