<svg width="18" height="18" viewBox="0 0 18 18" fill="none" xmlns="http://www.w3.org/2000/svg">
<path d="M15.0288 12.6423C16.944 10.9361 18 9.00004 18 9.00004C18 9.00004 14.625 2.81254 9 2.81254C7.8577 2.81254 6.80818 3.06771 5.86088 3.47442L6.72811 4.34165C7.43606 4.08736 8.19496 3.93754 9 3.93754C11.3843 3.93754 13.3638 5.25175 14.8139 6.70179C15.5292 7.41706 16.0851 8.13596 16.4618 8.67651C16.5436 8.79391 16.6167 8.9024 16.6807 9.00004C16.6167 9.09768 16.5436 9.20617 16.4618 9.32357C16.0851 9.86412 15.5292 10.583 14.8139 11.2983C14.6285 11.4837 14.4344 11.6669 14.2319 11.8454L15.0288 12.6423Z" fill="#868A9A"/>
<path d="M12.7097 10.3232C12.8572 9.90967 12.9375 9.46424 12.9375 9.00004C12.9375 6.82542 11.1746 5.06254 9 5.06254C8.5358 5.06254 8.09037 5.14287 7.67684 5.29038L8.60195 6.21549C8.73199 6.19707 8.86488 6.18754 9 6.18754C10.5533 6.18754 11.8125 7.44674 11.8125 9.00004C11.8125 9.13516 11.803 9.26806 11.7846 9.39809L12.7097 10.3232Z" fill="#868A9A"/>
<path d="M9.39808 11.7846L10.3232 12.7097C9.90965 12.8572 9.46421 12.9375 9 12.9375C6.82538 12.9375 5.0625 11.1747 5.0625 9.00004C5.0625 8.53584 5.14283 8.09039 5.29035 7.67686L6.21545 8.60196C6.19703 8.73201 6.1875 8.86491 6.1875 9.00004C6.1875 10.5533 7.4467 11.8125 9 11.8125C9.13513 11.8125 9.26803 11.803 9.39808 11.7846Z" fill="#868A9A"/>
<path d="M3.76812 6.15463C3.56564 6.33315 3.37155 6.51636 3.18612 6.70179C2.47085 7.41706 1.91493 8.13596 1.53818 8.67651C1.45636 8.79391 1.38333 8.9024 1.31929 9.00004C1.38333 9.09768 1.45636 9.20617 1.53818 9.32357C1.91493 9.86412 2.47085 10.583 3.18612 11.2983C4.63616 12.7483 6.6157 14.0625 9 14.0625C9.80505 14.0625 10.564 13.9127 11.2719 13.6584L12.1391 14.5257C11.1918 14.9324 10.1423 15.1875 9 15.1875C3.375 15.1875 0 9.00004 0 9.00004C0 9.00004 1.05606 7.06394 2.97126 5.35777L3.76812 6.15463Z" fill="#868A9A"/>
<path d="M15.3523 16.1478L1.85225 2.64779L2.64775 1.85229L16.1477 15.3523L15.3523 16.1478Z" fill="#868A9A"/>
</svg>
