<svg width="18" height="18" viewBox="0 0 18 18" fill="none" xmlns="http://www.w3.org/2000/svg">
<path d="M18 9C18 9 14.625 2.8125 9 2.8125C3.375 2.8125 0 9 0 9C0 9 3.375 15.1875 9 15.1875C14.625 15.1875 18 9 18 9ZM1.31929 9C1.38333 8.90236 1.45636 8.79387 1.53818 8.67647C1.91493 8.13592 2.47085 7.41702 3.18612 6.70175C4.63616 5.2517 6.6157 3.9375 9 3.9375C11.3843 3.9375 13.3638 5.2517 14.8139 6.70175C15.5292 7.41702 16.0851 8.13592 16.4618 8.67647C16.5436 8.79387 16.6167 8.90236 16.6807 9C16.6167 9.09764 16.5436 9.20613 16.4618 9.32353C16.0851 9.86408 15.5292 10.583 14.8139 11.2983C13.3638 12.7483 11.3843 14.0625 9 14.0625C6.6157 14.0625 4.63616 12.7483 3.18612 11.2983C2.47085 10.583 1.91493 9.86408 1.53818 9.32353C1.45636 9.20613 1.38333 9.09764 1.31929 9Z" fill="#868A9A"/>
<path d="M9 6.1875C7.4467 6.1875 6.1875 7.4467 6.1875 9C6.1875 10.5533 7.4467 11.8125 9 11.8125C10.5533 11.8125 11.8125 10.5533 11.8125 9C11.8125 7.4467 10.5533 6.1875 9 6.1875ZM5.0625 9C5.0625 6.82538 6.82538 5.0625 9 5.0625C11.1746 5.0625 12.9375 6.82538 12.9375 9C12.9375 11.1746 11.1746 12.9375 9 12.9375C6.82538 12.9375 5.0625 11.1746 5.0625 9Z" fill="#868A9A"/>
</svg>
