<svg width="30" height="30" viewBox="0 0 30 30" fill="none" xmlns="http://www.w3.org/2000/svg">
<rect width="30" height="30" rx="5" fill="#F7F6FB"/>
<path d="M15 9.74805L14.2832 9.01133C12.5989 7.28007 9.51415 7.87769 8.40036 10.0528C7.87653 11.0758 7.75875 12.5525 8.71429 14.4376C9.63457 16.2531 11.5477 18.4265 15 20.7946C18.4523 18.4265 20.3654 16.2531 21.2857 14.4376C22.2413 12.5525 22.1235 11.0758 21.5996 10.0528C20.4859 7.87769 17.4011 7.28007 15.7168 9.01133L15 9.74805ZM15 22C-0.33313 11.8684 10.2788 3.95913 14.8243 8.14308C14.8839 8.19797 14.9425 8.25493 15 8.314C15.0575 8.25494 15.116 8.19797 15.1757 8.14309C19.7212 3.95912 30.3331 11.8684 15 22Z" fill="#F39200"/>
</svg>
