<svg width="26" height="26" viewBox="0 0 26 26" fill="none" xmlns="http://www.w3.org/2000/svg">
<path d="M9.75 17.0625C9.75 16.6138 10.1138 16.25 10.5625 16.25H15.4375C15.8862 16.25 16.25 16.6138 16.25 17.0625C16.25 17.5112 15.8862 17.875 15.4375 17.875H10.5625C10.1138 17.875 9.75 17.5112 9.75 17.0625Z" fill="#0069B4"/>
<path d="M6.5 12.1875C6.5 11.7388 6.86377 11.375 7.3125 11.375H18.6875C19.1362 11.375 19.5 11.7388 19.5 12.1875C19.5 12.6362 19.1362 13 18.6875 13H7.3125C6.86377 13 6.5 12.6362 6.5 12.1875Z" fill="#0069B4"/>
<path d="M3.25 7.3125C3.25 6.86377 3.61377 6.5 4.0625 6.5H21.9375C22.3862 6.5 22.75 6.86377 22.75 7.3125C22.75 7.76123 22.3862 8.125 21.9375 8.125H4.0625C3.61377 8.125 3.25 7.76123 3.25 7.3125Z" fill="#0069B4"/>
</svg>
