<svg width="22" height="14" viewBox="0 0 22 14" fill="none" xmlns="http://www.w3.org/2000/svg">
<g clip-path="url(#clip0_2810_8932)">
<path d="M0 0H21.1186V14H0V0Z" fill="#E30A17"/>
<path d="M10.691 4.85497C10.1517 4.46608 9.49715 4.25731 8.82613 4.2614C7.14652 4.2614 5.78801 5.52222 5.78801 7.08187C5.78801 8.64152 7.15063 9.90234 8.82613 9.90234C9.53008 9.90234 10.1805 9.68129 10.691 9.30877C9.45598 10.8889 7.16298 11.1754 5.57394 9.94327C3.9849 8.71111 3.69673 6.43509 4.93585 4.85497C6.17498 3.27485 8.46386 2.9883 10.0529 4.22047C10.2917 4.40468 10.5057 4.62164 10.691 4.85497ZM12.3336 7.54854L11.5884 8.44503L11.6378 7.28246L10.551 6.85672L11.6749 6.54561L11.749 5.38713L12.3912 6.35731L13.5233 6.06667L12.8029 6.96725L13.4327 7.94561L12.3336 7.54854Z" fill="white"/>
</g>
<defs>
<clipPath id="clip0_2810_8932">
<rect width="21.1186" height="14" fill="white"/>
</clipPath>
</defs>
</svg>
