<svg width="14" height="14" viewBox="0 0 14 14" fill="none" xmlns="http://www.w3.org/2000/svg">
<path d="M8.31443 4.82377C8.23312 4.78735 8.1375 4.84663 8.1375 4.9409V5.81877C8.1375 6.0604 7.94162 6.25627 7.7 6.25627H2.1875V8.79378H7.7C7.94162 8.79378 8.1375 8.98965 8.1375 9.23128V10.1091C8.1375 10.2034 8.23312 10.2627 8.31443 10.2263L11.8 7.66008C11.812 7.65125 11.8245 7.64304 11.8373 7.63548C11.9209 7.5862 11.9209 7.46384 11.8373 7.41457C11.8245 7.407 11.812 7.39879 11.8 7.38996L8.31443 4.82377ZM7.2625 4.9409C7.2625 4.15741 8.11072 3.68715 8.77159 4.07661C8.78442 4.08417 8.79686 4.09238 8.80885 4.10121L12.3032 6.67383C12.9323 7.0651 12.9323 7.98494 12.3032 8.37621L8.80885 10.9488C8.79686 10.9577 8.78442 10.9659 8.77159 10.9734C8.11072 11.3629 7.2625 10.8926 7.2625 10.1091V9.66878H1.75C1.50838 9.66878 1.3125 9.4729 1.3125 9.23128V5.81877C1.3125 5.57715 1.50838 5.38127 1.75 5.38127H7.2625V4.9409Z" fill="black"/>
</svg>
