<svg width="43" height="22" viewBox="0 0 43 22" fill="currentColor" xmlns="http://www.w3.org/2000/svg">
<path d="M33.0642 19.5398C32.4067 19.5398 31.8806 19.0064 31.8806 18.3641C31.8806 17.711 32.4176 17.1885 33.0642 17.1885C33.7218 17.1885 34.2478 17.7219 34.2478 18.3641C34.2478 19.0064 33.7108 19.5398 33.0642 19.5398Z" fill="currentColor"/>
<path d="M33.064 22C31.0365 22 29.4036 20.3672 29.4036 18.3642C29.4036 16.3503 31.0475 14.7284 33.064 14.7284C35.0914 14.7284 36.7243 16.3612 36.7243 18.3642C36.7243 20.3672 35.0804 22 33.064 22ZM33.064 16.1762C31.8256 16.1762 30.8283 17.1559 30.8283 18.3642C30.8283 19.5725 31.8256 20.5522 33.064 20.5522C34.3023 20.5522 35.2996 19.5725 35.2996 18.3642C35.2996 17.1559 34.2914 16.1762 33.064 16.1762Z" fill="currentColor"/>
<path d="M7.30999 17.1776C7.96758 17.1776 8.49359 17.711 8.49359 18.3533C8.49359 19.0065 7.9566 19.529 7.30999 19.529C6.65245 19.529 6.12638 18.9955 6.12638 18.3533C6.11546 17.711 6.65245 17.1776 7.30999 17.1776Z" fill="currentColor"/>
<path d="M7.30961 14.7175C9.33707 14.7175 10.97 16.3503 10.97 18.3533C10.97 20.3672 9.32614 21.9891 7.30961 21.9891C5.28215 21.9891 3.64922 20.3563 3.64922 18.3533C3.63827 16.3503 5.28215 14.7175 7.30961 14.7175ZM7.30961 20.5414C8.548 20.5414 9.54529 19.5616 9.54529 18.3533C9.54529 17.145 8.548 16.1653 7.30961 16.1653C6.07121 16.1653 5.07393 17.145 5.07393 18.3533C5.07393 19.5616 6.07121 20.5414 7.30961 20.5414Z" fill="currentColor"/>
<path d="M0.0219193 0.642258C0.0219193 0.293912 0.263024 0 0.569881 0H36.7793C37.0861 0 37.4587 0.239485 37.6231 0.544285L37.7876 0.8382C37.656 0.990599 37.6122 1.15389 37.6779 1.27363L40.5492 6.55321C40.615 6.67296 40.7794 6.72738 40.9657 6.70558L41.7548 8.16428C41.9192 8.46908 42.0507 8.99159 42.0507 9.3508V12.2137C41.8863 12.2791 41.7657 12.3988 41.7657 12.5295V14.0317C41.7657 14.1732 41.8863 14.2929 42.0507 14.3474V14.7175C42.0507 15.2618 42.489 15.4141 42.6973 15.7952C42.9712 16.285 42.8398 17.4933 42.7082 17.7764C42.5877 18.0376 42.4781 18.3424 41.3822 18.3424L37.9629 18.3533C37.656 18.3533 37.393 17.6784 37.2725 17.3518C36.7574 16.0237 35.7929 14.1514 33.0531 14.1514C30.0174 14.1514 28.1324 16.9817 28.9763 20.0515C29.2174 20.9332 28.7352 20.4107 28.4612 18.9629C28.3955 18.6145 28.2091 18.3533 27.9023 18.3533L12.1977 18.3424C11.9127 18.3424 11.6716 17.8308 11.4853 17.33C10.9154 15.8496 9.91813 14.1405 7.29884 14.1405C5.9399 14.1405 4.75632 14.7066 3.95629 15.7407C3.06859 16.8946 2.81653 18.4404 3.24394 20.0079C3.3097 20.2583 3.33161 20.4107 3.28778 20.4543C3.27682 20.4651 3.26586 20.476 3.24394 20.476C3.12339 20.476 2.84941 19.8882 2.67406 18.9302C2.61926 18.6037 2.45488 18.3968 2.23569 18.3533H0.701395C0.394534 18.3533 0 18.2009 0 17.8961L0.0219193 0.642258ZM30.138 10.4285C30.138 10.6462 30.3133 10.8095 30.5435 10.8095H31.6832C31.9024 10.8095 32.0887 10.6353 32.0887 10.4285V10.0366C32.0887 9.82977 31.9134 9.6556 31.6832 9.6556H30.5435C30.3243 9.6556 30.138 9.82977 30.138 10.0366V10.4285ZM29.2941 6.80359C29.2941 7.22809 29.5571 7.57643 29.8969 7.57643L35.0477 7.56556C35.3765 7.56556 35.6833 7.76153 35.8478 8.10987L37.2944 10.853C37.5355 11.2123 37.8861 11.2123 38.2149 11.2123H39.3218C39.6506 11.2123 39.8917 10.9619 39.8917 10.5265V7.57643C39.8917 7.15193 39.8478 6.80359 39.6725 6.44432L37.0423 1.54577C36.867 1.18654 36.4614 0.892631 36.1217 0.892631H29.8969C29.5681 0.892631 29.2941 1.24097 29.2941 1.66551V6.80359ZM19.6171 12.3662C19.6171 12.7907 19.9568 13.1282 20.3842 13.1282H26.2255C26.6529 13.1282 26.9927 12.7907 26.9927 12.3662V1.69817C26.9927 1.27363 26.6529 0.936168 26.2255 0.936168H20.3842C19.9568 0.936168 19.6171 1.27363 19.6171 1.69817V12.3662ZM10.9593 12.3662C10.9593 12.7907 11.299 13.1282 11.7264 13.1282H17.5677C17.9951 13.1282 18.3348 12.7907 18.3348 12.3662V1.69817C18.3348 1.27363 17.9951 0.936168 17.5677 0.936168H11.7264C11.299 0.936168 10.9593 1.27363 10.9593 1.69817V12.3662ZM2.30144 12.3662C2.30144 12.7907 2.64118 13.1282 3.06859 13.1282H8.90986C9.33728 13.1282 9.67703 12.7907 9.67703 12.3662V1.69817C9.67703 1.27363 9.33728 0.936168 8.90986 0.936168H3.06859C2.64118 0.936168 2.30144 1.27363 2.30144 1.69817V12.3662Z" fill="currentColor"/>
</svg>
