<svg width="22" height="22" viewBox="0 0 22 22" fill="none" xmlns="http://www.w3.org/2000/svg">
<path fill-rule="evenodd" clip-rule="evenodd" d="M1.375 11C1.375 16.3157 5.68426 20.625 11 20.625C16.3157 20.625 20.625 16.3157 20.625 11C20.625 5.68426 16.3157 1.375 11 1.375C5.68426 1.375 1.375 5.68426 1.375 11ZM22 11C22 17.0751 17.0751 22 11 22C4.92487 22 0 17.0751 0 11C0 4.92487 4.92487 0 11 0C17.0751 0 22 4.92487 22 11ZM15.8125 10.3125C16.1922 10.3125 16.5 10.6203 16.5 11C16.5 11.3797 16.1922 11.6875 15.8125 11.6875H7.84727L10.7986 14.6389C11.0671 14.9073 11.0671 15.3427 10.7986 15.6111C10.5302 15.8796 10.0948 15.8796 9.82636 15.6111L5.70136 11.4861C5.43288 11.2177 5.43288 10.7823 5.70136 10.5139L9.82636 6.38886C10.0948 6.12038 10.5302 6.12038 10.7986 6.38886C11.0671 6.65735 11.0671 7.09265 10.7986 7.36114L7.84727 10.3125H15.8125Z" fill="#0069B4"/>
</svg>
