<svg width="19" height="19" viewBox="0 0 19 19" fill="none" xmlns="http://www.w3.org/2000/svg">
<path d="M9.5 3.26331L8.64886 2.38846C6.6487 0.332579 2.98555 1.04226 1.66292 3.62525C1.04088 4.84005 0.901016 6.59355 2.03572 8.83212C3.12856 10.9881 5.40036 13.5689 9.5 16.3811C13.5996 13.5689 15.8714 10.9881 16.9643 8.83212C18.099 6.59355 17.9591 4.84005 17.3371 3.62525C16.0145 1.04226 12.3513 0.332579 10.3511 2.38846L9.5 3.26331ZM9.5 17.8125C-8.70809 5.78124 3.89352 -3.61103 9.29138 1.35741C9.36219 1.42259 9.43176 1.49023 9.5 1.56038C9.56824 1.49024 9.63781 1.42259 9.70861 1.35742C15.1065 -3.61104 27.7081 5.78123 9.5 17.8125Z" fill="#F39200"/>
</svg>
