<svg width="21" height="21" viewBox="0 0 21 21" fill="none" xmlns="http://www.w3.org/2000/svg">
<path d="M10.964 1.50471C10.7078 1.24843 10.2922 1.24843 10.036 1.50471L2.16096 9.37971C2.03789 9.50278 1.96875 9.6697 1.96875 9.84375V19.0312C1.96875 19.3937 2.26256 19.6875 2.625 19.6875H8.53125C8.89369 19.6875 9.1875 19.3937 9.1875 19.0312V13.7812H11.8125V19.0312C11.8125 19.3937 12.1063 19.6875 12.4688 19.6875H18.375C18.7374 19.6875 19.0312 19.3937 19.0312 19.0312V9.84375C19.0312 9.6697 18.9621 9.50278 18.839 9.37971L17.0625 7.60317V3.28125C17.0625 2.91881 16.7687 2.625 16.4062 2.625H15.0938C14.7313 2.625 14.4375 2.91881 14.4375 3.28125V4.97817L10.964 1.50471ZM3.28125 18.375V10.1156L10.5 2.89683L17.7188 10.1156V18.375H13.125V13.125C13.125 12.7626 12.8312 12.4688 12.4688 12.4688H8.53125C8.16881 12.4688 7.875 12.7626 7.875 13.125V18.375H3.28125Z" fill="currentColor"/>
</svg>
