<svg width="21" height="21" viewBox="0 0 21 21" fill="none" xmlns="http://www.w3.org/2000/svg">
<path fill-rule="evenodd" clip-rule="evenodd" d="M7.875 16.4062C7.875 16.0438 8.16881 15.75 8.53125 15.75H17.7188C18.0812 15.75 18.375 16.0438 18.375 16.4062C18.375 16.7687 18.0812 17.0625 17.7188 17.0625H8.53125C8.16881 17.0625 7.875 16.7687 7.875 16.4062Z" fill="black"/>
<path fill-rule="evenodd" clip-rule="evenodd" d="M2.625 12.4688C2.625 12.1063 2.91881 11.8125 3.28125 11.8125H17.7188C18.0812 11.8125 18.375 12.1063 18.375 12.4688C18.375 12.8312 18.0812 13.125 17.7188 13.125H3.28125C2.91881 13.125 2.625 12.8312 2.625 12.4688Z" fill="black"/>
<path fill-rule="evenodd" clip-rule="evenodd" d="M2.625 8.53125C2.625 8.16881 2.91881 7.875 3.28125 7.875H17.7188C18.0812 7.875 18.375 8.16881 18.375 8.53125C18.375 8.89369 18.0812 9.1875 17.7188 9.1875H3.28125C2.91881 9.1875 2.625 8.89369 2.625 8.53125Z" fill="black"/>
<path fill-rule="evenodd" clip-rule="evenodd" d="M2.625 4.59375C2.625 4.23131 2.91881 3.9375 3.28125 3.9375H17.7188C18.0812 3.9375 18.375 4.23131 18.375 4.59375C18.375 4.95619 18.0812 5.25 17.7188 5.25H3.28125C2.91881 5.25 2.625 4.95619 2.625 4.59375Z" fill="black"/>
</svg>
