<svg width="51" height="22" viewBox="0 0 51 22" fill="currentColor" xmlns="http://www.w3.org/2000/svg">
<path fill-rule="evenodd" clip-rule="evenodd" d="M13.5414 15.7306C15.2628 15.7306 16.6973 17.1554 16.6973 18.8653C16.6973 20.5751 15.2628 22 13.5414 22C11.82 22 10.3855 20.5751 10.3855 18.8653C10.3855 17.1554 11.82 15.7306 13.5414 15.7306ZM13.5414 20.7461C14.5742 20.7461 15.3775 19.8912 15.3775 18.9223C15.3775 17.9534 14.5168 17.0415 13.5414 17.0415C12.5086 17.0415 11.6478 17.8964 11.6478 18.9223C11.6478 19.9482 12.5086 20.7461 13.5414 20.7461Z" fill="currentColor"/>
<path fill-rule="evenodd" clip-rule="evenodd" d="M40.9693 15.7306C42.6907 15.7306 44.1252 17.1554 44.1252 18.8653C44.1252 20.5751 42.6907 22 40.9693 22C39.248 22 37.8135 20.5751 37.8135 18.8653C37.8135 17.1554 39.248 15.7306 40.9693 15.7306ZM40.9693 20.7461C42.0022 20.7461 42.8055 19.8912 42.8055 18.9223C42.8055 17.9534 41.9448 17.0415 40.9693 17.0415C39.9365 17.0415 39.1332 17.8964 39.1332 18.9223C39.1332 19.9482 39.9365 20.7461 40.9693 20.7461Z" fill="currentColor"/>
<path fill-rule="evenodd" clip-rule="evenodd" d="M38.5591 15.2178L39.4197 14.5338C39.9936 14.5338 40.9116 14.5338 41.3133 14.5338C41.887 14.5338 43.2068 14.6478 44.2396 15.8446C44.9282 16.6426 45.1577 17.7825 45.2724 18.4094L44.5265 18.5234C44.3544 16.7566 42.8051 15.3887 41.0264 15.3887C39.0755 15.3887 37.4688 16.9845 37.4688 18.9224C37.4688 19.0934 37.4688 19.2643 37.5262 19.4353L36.7803 19.5493C36.7803 19.5493 36.9524 18.1815 37.1819 17.3265C37.354 16.4716 38.5591 15.2178 38.5591 15.2178Z" fill="currentColor"/>
<path fill-rule="evenodd" clip-rule="evenodd" d="M45.617 18.2384H45.4449C45.2727 17.4975 44.9858 16.6426 44.5268 16.0156C43.4366 14.4768 42.0595 14.3628 41.4283 14.3058C40.9119 14.3058 39.5922 14.3058 39.0757 14.3058V14.0208L38.6741 13.1659V10.3162V10.0882V5.18665C38.6741 5.18665 45.1006 5.18665 46.0187 5.18665C46.0761 5.18665 46.1908 5.18665 46.2482 5.24364C46.5925 5.35763 46.9941 5.52861 47.2811 5.98457C48.1417 7.40942 49.1745 11.399 49.1172 11.969C49.232 12.026 49.2893 12.026 49.2893 12.026V17.7255H49.7484L50.15 18.2954L49.9779 19.4353L49.691 19.7203H44.5268V19.5493V18.8083L45.7318 18.6944L45.617 18.2384ZM46.4203 12.6529C47.2236 12.7099 47.8548 12.7099 48.0843 12.5389C48.3139 12.368 48.027 10.7152 47.6827 9.68921C47.3384 8.66334 46.7646 6.21254 46.4203 6.04154C46.1334 5.92758 45.9039 5.92758 45.5596 5.92758H40.9693C40.7971 5.92758 40.6824 6.09858 40.6824 6.32656V9.74619C40.6824 9.97417 40.7971 10.1452 40.9693 10.1452H43.2071C43.494 10.1452 43.8382 10.0882 44.1251 10.2022C44.4121 10.3162 44.7563 10.5442 44.9859 10.8861C45.3875 11.627 45.617 12.5389 46.4203 12.6529Z" fill="currentColor"/>
<path fill-rule="evenodd" clip-rule="evenodd" d="M0.573798 0H35.1738C35.5181 0 35.7476 0.284973 35.7476 0.569948V14.3057C35.7476 14.6476 35.4607 14.8756 35.1738 14.8756H0.573798C0.22952 14.8756 0 14.5906 0 14.3057V0.626946C0 0.284977 0.22952 0 0.573798 0Z" fill="currentColor"/>
<path fill-rule="evenodd" clip-rule="evenodd" d="M9.98369 17.7254H2.12262V19.1503C2.12262 19.3213 1.9505 19.4923 1.77836 19.4923C1.60622 19.4923 1.43408 19.3213 1.43408 19.1503V17.7254V16.6425V15.3887H11.3034C10.6148 15.9586 10.0984 16.8135 9.98369 17.7254Z" fill="currentColor"/>
<path fill-rule="evenodd" clip-rule="evenodd" d="M15.7793 15.3887H38.0426C37.7557 15.7306 36.9524 16.6425 36.7229 17.3265C36.6655 17.4405 36.6655 17.5544 36.6081 17.7254H17.099C16.9843 16.8135 16.4679 15.9586 15.7793 15.3887Z" fill="currentColor"/>
<path fill-rule="evenodd" clip-rule="evenodd" d="M19.1643 18.0104H22.0907L16.9839 19.3782C16.9839 19.3212 16.9839 19.2642 16.9839 19.2073C16.9839 19.0363 16.9265 18.8083 16.9265 18.6373L19.1643 18.0104Z" fill="currentColor"/>
<path d="M23.5254 18.0104H30.9848V19.3782H23.5254V18.0104Z" fill="currentColor"/>
<path fill-rule="evenodd" clip-rule="evenodd" d="M32.4763 18.0104H36.1486C36.3208 18.0104 36.4929 18.1813 36.4929 18.3523V18.9793C36.4929 19.1502 36.3208 19.3212 36.1486 19.3212H32.4763C32.3042 19.3212 32.1321 19.1502 32.1321 18.9793V18.3523C32.1321 18.1243 32.2468 18.0104 32.4763 18.0104Z" fill="currentColor"/>
<path fill-rule="evenodd" clip-rule="evenodd" d="M37.8696 14.9324H36.6646C36.4924 14.9324 36.3203 14.7614 36.3203 14.5905V10.3729C36.3203 10.2019 36.4924 10.0309 36.6646 10.0309H36.8367V2.16565H37.7548V10.0309H37.9269C38.0991 10.0309 38.2712 10.2019 38.2712 10.3729V14.5905C38.2139 14.7614 38.0991 14.9324 37.8696 14.9324Z" fill="currentColor"/>
</svg>
