<svg width="75" height="22" viewBox="0 0 75 22" fill="currentColor" xmlns="http://www.w3.org/2000/svg">
<path d="M53.6526 3.47083L56.0718 3.57762C56.3943 3.57762 56.6631 3.84461 56.6631 4.165V4.85918C56.6631 5.17958 56.3943 5.44658 56.0718 5.44658H53.4913C53.1688 5.44658 52.8999 5.17958 52.8999 4.85918L53.0612 3.95141C53.115 3.73782 53.2225 3.47083 53.6526 3.47083Z" fill="currentColor"/>
<path d="M1.61276 16.233H5.37593C4.46201 16.8738 3.87066 17.9418 3.87066 19.1165C3.87066 19.17 3.87066 19.2767 3.87066 19.3301H1.61276C1.39772 19.3301 1.23645 19.17 1.23645 18.9564V16.5534C1.29021 16.3932 1.45148 16.233 1.61276 16.233Z" fill="currentColor"/>
<path d="M9.46167 16.233H11.3971C11.0207 16.5001 10.6981 16.8738 10.4293 17.2476C10.1605 16.8204 9.83804 16.5001 9.46167 16.233Z" fill="currentColor"/>
<path d="M13.44 16.233C15.0528 16.233 16.343 17.5146 16.343 19.1165C16.343 20.7185 15.0528 22.0001 13.44 22.0001C11.8272 22.0001 10.537 20.7185 10.537 19.1165C10.537 17.5146 11.8272 16.233 13.44 16.233ZM13.44 20.2913C14.0851 20.2913 14.6227 19.7573 14.6227 19.1165C14.6227 18.4757 14.0851 17.9418 13.44 17.9418C12.7949 17.9418 12.2573 18.4757 12.2573 19.1165C12.2573 19.7573 12.7949 20.2913 13.44 20.2913Z" fill="currentColor"/>
<path d="M7.41901 16.233C9.03183 16.233 10.322 17.5146 10.322 19.1165C10.322 20.7185 9.03183 22.0001 7.41901 22.0001C5.80623 22.0001 4.51599 20.7185 4.51599 19.1165C4.51599 17.5146 5.80623 16.233 7.41901 16.233ZM7.41901 20.2913C8.06417 20.2913 8.60175 19.7573 8.60175 19.1165C8.60175 18.4757 8.06417 17.9418 7.41901 17.9418C6.77391 17.9418 6.23631 18.4757 6.23631 19.1165C6.23631 19.7573 6.77391 20.2913 7.41901 20.2913Z" fill="currentColor"/>
<path d="M0.430088 0H47.2009C47.4159 0 47.6309 0.213595 47.6309 0.533988V14.8982C47.6309 15.1653 47.4159 15.4322 47.2009 15.4322H0.430088C0.215046 15.4322 0 15.2186 0 14.8982V0.533988C0 0.266994 0.161288 0 0.430088 0Z" fill="currentColor"/>
<path d="M47.04 16.2335H49.4055C49.4055 15.2723 49.513 11.2674 49.6743 7.63627C49.8355 4.43233 50.0506 1.5488 50.3194 1.28181C50.3194 1.28181 50.3732 1.2818 50.3732 1.2284C50.6957 1.06821 53.1149 1.4954 54.1363 1.92259C55.8567 2.08279 60.3187 2.93717 63.7055 5.76729C64.2969 6.03429 64.942 6.19448 65.4259 6.83527C65.4796 6.94207 65.5872 7.15567 65.4796 7.15567C65.1033 7.15567 64.5119 7.26248 65.3183 9.29159C65.5871 9.98581 65.7484 10.4664 66.1785 11.2674C67.0924 11.3742 71.9845 12.6023 73.9738 13.5101C74.2963 13.9373 74.404 15.3791 74.404 15.5392C74.404 15.5392 74.4571 17.7286 74.4571 17.782C74.4571 17.8354 74.5649 17.8354 74.5649 17.8889C74.5649 17.9422 74.511 19.4374 74.511 19.4374C74.511 19.5442 74.404 19.6509 74.2963 19.6509H71.2319C71.2319 19.5976 71.1781 19.5976 71.1781 19.5976C71.5544 17.4616 69.9416 15.5927 67.845 15.5927C65.9635 15.5927 64.4044 17.0879 64.4044 18.9568C64.4044 19.2238 64.4044 19.4374 64.4044 19.6509C64.4044 19.6509 53.3837 19.6509 48.6529 19.5976C48.7067 19.4374 48.7067 19.2238 48.7067 19.0636C48.8142 17.8354 48.1153 16.7674 47.04 16.2335ZM72.9522 15.8063H73.7045C73.7045 15.8063 73.5437 14.1509 72.4684 13.6169C72.4684 13.6169 72.4684 13.6169 72.4684 13.6703C72.4684 13.7237 72.9522 14.8451 72.9522 15.8063ZM60.1574 12.9762H61.2864C61.4476 12.9762 61.6089 12.8159 61.6089 12.6557C61.6089 12.4955 61.4476 12.3354 61.2864 12.3354H60.1574C59.9961 12.3354 59.8348 12.4955 59.8348 12.6557C59.8348 12.8159 59.9961 12.9762 60.1574 12.9762ZM59.8348 10.3596C59.8348 10.6266 60.0499 10.7868 60.2649 10.7868L64.7807 11.3208C65.0495 11.3208 65.2108 11.1072 65.2108 10.8936L64.0818 7.84987C64.0818 7.58285 63.8668 7.42267 63.6518 7.42267H60.2649C59.9961 7.42267 59.8348 7.63627 59.8348 7.84987V10.3596ZM53.545 5.55371H56.1255C56.5555 5.55371 56.8781 5.23331 56.8781 4.80612V4.11194C56.8781 3.68475 56.5555 3.36435 56.1255 3.36435L53.7063 3.25756C53.33 3.25756 53.0612 3.47115 52.9536 3.84495L52.7924 4.75273C52.7386 5.23331 53.1149 5.55371 53.545 5.55371Z" fill="currentColor"/>
<path d="M15.4838 16.233H35.8586C34.8372 16.767 34.0845 17.8884 34.0845 19.1165C34.0845 19.2767 34.0845 19.4903 34.1383 19.6505H33.3857V17.7816H29.8913L28.7623 18.369V19.8108C28.7623 20.1311 28.4935 20.3447 28.2248 20.3447H21.021C20.6984 20.3447 20.4834 20.0777 20.4834 19.8108V19.3836H17.0428C17.0428 19.3301 17.0428 19.2234 17.0428 19.17C16.989 17.9418 16.3977 16.8738 15.4838 16.233Z" fill="currentColor"/>
<path d="M38.9221 16.233H43.9755C42.9541 16.767 42.2015 17.8884 42.2015 19.1165C42.2015 19.2767 42.2015 19.4903 42.2553 19.6505H40.5887C40.5887 19.4903 40.6424 19.3301 40.6424 19.1165C40.6424 18.7428 40.5349 18.369 40.4274 18.0486C40.3737 17.9418 40.3737 17.8884 40.3199 17.7816C40.3199 17.7816 40.3199 17.7816 40.3199 17.7282C40.1049 17.0874 39.5673 16.5534 38.9221 16.233Z" fill="currentColor"/>
<path d="M37.4165 16.233C39.0294 16.233 40.3196 17.5146 40.3196 19.1165C40.3196 20.7185 39.0294 22.0001 37.4165 22.0001C35.8038 22.0001 34.5135 20.7185 34.5135 19.1165C34.5135 17.5146 35.8038 16.233 37.4165 16.233ZM37.4165 20.2913C38.0617 20.2913 38.5993 19.7573 38.5993 19.1165C38.5993 18.4757 38.0617 17.9418 37.4165 17.9418C36.7715 17.9418 36.2339 18.4757 36.2339 19.1165C36.2339 19.7573 36.7715 20.2913 37.4165 20.2913Z" fill="currentColor"/>
<path d="M45.5356 16.233C47.1484 16.233 48.4386 17.5146 48.4386 19.1165C48.4386 20.7185 47.1484 22.0001 45.5356 22.0001C43.9228 22.0001 42.6326 20.7185 42.6326 19.1165C42.6326 17.5146 43.9228 16.233 45.5356 16.233ZM45.5356 20.2913C46.1807 20.2913 46.7183 19.7573 46.7183 19.1165C46.7183 18.4757 46.1807 17.9418 45.5356 17.9418C44.8905 17.9418 44.3529 18.4757 44.3529 19.1165C44.3529 19.7573 44.8905 20.2913 45.5356 20.2913Z" fill="currentColor"/>
<path d="M67.8439 16.233C69.4567 16.233 70.7469 17.5146 70.7469 19.1165C70.7469 20.7185 69.4567 22.0001 67.8439 22.0001C66.2311 22.0001 64.9409 20.7185 64.9409 19.1165C64.9946 17.5146 66.2849 16.233 67.8439 16.233ZM67.8439 20.2913C68.489 20.2913 69.0266 19.7573 69.0266 19.1165C69.0266 18.4757 68.489 17.9418 67.8439 17.9418C67.1988 17.9418 66.6612 18.4757 66.6612 19.1165C66.715 19.7573 67.1988 20.2913 67.8439 20.2913Z" fill="currentColor"/>
</svg>
