<svg width="118" height="32" viewBox="0 0 118 32" fill="none" xmlns="http://www.w3.org/2000/svg">
<path d="M8.37982 24.4513C8.56162 24.8175 8.80666 25.1487 9.10366 25.4297C9.94147 26.1804 11.0379 26.5768 12.1621 26.5353C13.2695 26.5838 14.3526 26.2018 15.1847 25.4695C15.5591 25.0981 15.8519 24.6526 16.0444 24.1616C16.2368 23.6706 16.3246 23.1448 16.3023 22.6179V22.248C14.949 22.6698 13.5398 22.8843 12.1223 22.8843C8.95651 22.8366 6.49731 22.0173 4.74472 20.4265C2.99213 18.8356 2.09727 16.7489 2.06015 14.1664V13.0489H0L4.98733 8.05359L9.97465 13.0449H7.94234V13.379C7.92314 13.9197 8.01606 14.4586 8.21524 14.9616C8.41441 15.4647 8.71554 15.9211 9.09968 16.3022C9.95304 17.009 11.0243 17.3995 12.1324 17.4075C13.2405 17.4154 14.3173 17.0404 15.1807 16.3459C15.8288 15.7138 16.2187 14.8632 16.2744 13.9596L19.2533 16.9385L22.1845 14.0074V14.2301C22.1845 14.4011 22.1845 14.5721 22.1845 14.7392V23.3576C22.158 25.9189 21.2591 27.9883 19.488 29.5659C17.7168 31.1435 15.2603 31.9549 12.1183 31.9999C8.95518 31.9734 6.49731 31.1568 4.74472 29.55C3.27212 28.2334 2.34211 26.4159 2.13572 24.4513H8.37982Z" fill="#0069B4"/>
<path d="M22.1887 8.72186V9.83944H24.2488L19.2575 14.8307L14.2702 9.83944H16.3025V9.50536C16.3217 8.96463 16.2288 8.42578 16.0296 7.9227C15.8304 7.41962 15.5293 6.96321 15.1451 6.58216C14.2918 5.87529 13.2205 5.48485 12.1124 5.47688C11.0044 5.46891 9.92754 5.8439 9.06411 6.53841C8.41663 7.17097 8.0269 8.02128 7.9704 8.9247L4.98754 5.93787L2.0564 8.86902V8.64629C2.08556 6.08502 2.98439 4.01558 4.75289 2.43798C6.5214 0.860386 8.97661 0.0477256 12.1185 0C15.279 0.0477256 17.7409 0.868342 19.5041 2.46185C21.2673 4.05535 22.1608 6.14202 22.1847 8.72186" fill="#F39200"/>
<path d="M48.7358 6.78498C48.7334 6.44321 48.8328 6.10847 49.0213 5.82337C49.2098 5.53827 49.4789 5.3157 49.7943 5.18401C50.1097 5.05231 50.4571 5.01744 50.7924 5.08383C51.1276 5.15022 51.4356 5.31488 51.677 5.55684C51.9184 5.79879 52.0823 6.1071 52.1479 6.44253C52.2135 6.77795 52.1778 7.12531 52.0454 7.44039C51.913 7.75547 51.6898 8.02402 51.4042 8.21185C51.1187 8.39969 50.7837 8.4983 50.442 8.49515C49.9901 8.49099 49.5579 8.30935 49.2387 7.98942C48.9195 7.66948 48.7389 7.2369 48.7358 6.78498ZM42.3724 16.7755V9.48546H45.8006V16.3182C45.7887 16.633 45.8423 16.9468 45.958 17.2399C46.0737 17.5329 46.249 17.7987 46.4728 18.0204C46.9682 18.4332 47.5915 18.6613 48.2364 18.6657C48.8812 18.67 49.5076 18.4504 50.0085 18.0443C50.227 17.8279 50.3979 17.5682 50.5102 17.2819C50.6225 16.9957 50.6738 16.6891 50.6607 16.3818V9.48546H54.085V16.8153C54.1012 17.4954 53.9695 18.171 53.6989 18.7952C53.4284 19.4194 53.0255 19.9774 52.518 20.4305C51.4893 21.3479 50.0602 21.8199 48.2307 21.8464C46.3879 21.8199 44.9562 21.344 43.9354 20.4186C43.429 19.9588 43.0274 19.3956 42.7577 18.767C42.4881 18.1385 42.3566 17.4593 42.3724 16.7755ZM44.2655 6.78498C44.2632 6.44238 44.3631 6.10687 44.5525 5.82138C44.7419 5.53588 45.0122 5.31337 45.3288 5.18231C45.6453 5.05124 45.9938 5.01758 46.3296 5.08563C46.6654 5.15368 46.9732 5.32034 47.2138 5.5643C47.4543 5.80826 47.6166 6.11843 47.68 6.45514C47.7433 6.79186 47.7047 7.1398 47.5692 7.45449C47.4337 7.76917 47.2075 8.03628 46.9193 8.22166C46.6312 8.40704 46.2943 8.50227 45.9518 8.49515C45.495 8.49515 45.057 8.31372 44.7341 7.99076C44.4111 7.66781 44.2297 7.22978 44.2297 6.77305" fill="#0069B4"/>
<path d="M59.2396 16.7915H60.7549L64.3144 21.4567H68.3949L63.5548 15.1887L68.1961 9.65653H64.1633L60.7787 13.7132H59.2396V5.05896H55.8113V21.4567H59.2396V16.7915Z" fill="#0069B4"/>
<path d="M89.1752 11.9989C89.8379 11.99 90.4855 12.1966 91.0206 12.5876C91.524 12.9587 91.878 13.4975 92.0189 14.1068H86.2242C86.3971 13.4954 86.7713 12.9601 87.2861 12.5876C87.8372 12.1956 88.499 11.9894 89.1752 11.9989ZM92.4524 17.0976C92.1234 17.5861 91.6884 17.994 91.1797 18.2908C90.6259 18.5959 90.0024 18.7521 89.3701 18.7442C88.6817 18.7509 88.0066 18.5545 87.4293 18.1794C86.8695 17.8229 86.4571 17.2764 86.2679 16.6403H95.3796V15.6221C95.3477 13.5858 94.7618 11.995 93.6217 10.8496C92.4815 9.70414 90.9782 9.12746 89.1116 9.1195C87.9507 9.10978 86.8065 9.39585 85.7867 9.95073C84.8294 10.4721 84.0299 11.2414 83.472 12.1779C82.8947 13.157 82.5949 14.2748 82.605 15.4113C82.5812 16.6204 82.8997 17.8117 83.5237 18.8476C84.1045 19.769 84.9309 20.5101 85.91 20.9873C86.9816 21.4889 88.1532 21.7402 89.3363 21.7223C90.5193 21.7044 91.6828 21.4177 92.7387 20.8839C93.6536 20.415 94.4317 19.7177 94.9978 18.8595L92.4524 17.0976Z" fill="#F39200"/>
<path d="M97.4199 12.4961V16.8471C97.4067 17.5789 97.5923 18.3005 97.9569 18.9351C98.2863 19.4846 98.7216 19.9632 99.2375 20.343C99.7145 20.6989 100.223 21.0104 100.757 21.2737L101.775 21.8146L103.366 18.9948L102.427 18.4618C101.967 18.2367 101.56 17.9153 101.234 17.5193C100.95 17.1095 100.81 16.6171 100.836 16.1193V12.4961H102.96V9.48544H100.836V5.06287L97.412 6.97189V9.48544H96.2825V12.4961H97.4199Z" fill="#F39200"/>
<path d="M108.54 9.48157H105.116V21.4527H108.54V9.48157Z" fill="#F39200"/>
<path d="M113.722 15.9681C113.746 14.8148 114.052 13.9318 114.641 13.3193C115.214 12.7152 115.963 12.3062 116.781 12.1501L117.867 11.9353L117.214 9.05188L116.24 9.2229C115.694 9.32051 115.17 9.51875 114.697 9.80754C114.18 10.1116 113.759 10.5555 113.484 11.0882V9.49732H110.302V21.4685H113.73L113.722 15.9681Z" fill="#F39200"/>
<path d="M28.8779 16.7756V9.48547H32.3022V16.3182C32.2918 16.6322 32.3461 16.945 32.4617 17.2372C32.5774 17.5293 32.7519 17.7946 32.9744 18.0164C33.4696 18.4309 34.0935 18.6603 34.7392 18.6653C35.3849 18.6704 36.0123 18.4509 36.514 18.0443C36.7318 17.8273 36.9021 17.5676 37.0144 17.2814C37.1267 16.9953 37.1784 16.689 37.1663 16.3818V9.48547H40.5906V16.8153C40.5906 16.9506 40.5906 17.0858 40.5906 17.213V21.914C40.6046 22.5961 40.4695 23.273 40.1948 23.8975C39.92 24.5219 39.5121 25.0788 38.9997 25.5292C37.9736 26.4493 36.5445 26.9212 34.7124 26.9451C32.8749 26.9186 31.4432 26.4413 30.4171 25.5133C29.5597 24.7478 29.0193 23.6897 28.9018 22.5464H32.5329C32.6391 22.7591 32.7818 22.9516 32.9545 23.1151C33.4425 23.5526 34.0813 23.7836 34.7362 23.7594C35.3804 23.7881 36.0106 23.5656 36.4941 23.139C36.7122 22.9231 36.8828 22.6641 36.9951 22.3785C37.1074 22.0929 37.1589 21.7871 37.1464 21.4805C36.3586 21.727 35.5378 21.8518 34.7124 21.8504C32.8749 21.8239 31.4432 21.3479 30.4171 20.4226C29.9114 19.9625 29.5106 19.3991 29.2416 18.7705C28.9726 18.142 28.8418 17.463 28.858 16.7795" fill="#0069B4"/>
<path d="M69.1344 16.7716V14.5166C69.119 13.8362 69.2514 13.1605 69.5227 12.5363C69.7939 11.9121 70.1974 11.3543 70.7054 10.9013C71.7341 9.98129 73.1632 9.50934 74.9927 9.48547C76.8302 9.51464 78.2619 9.99057 79.288 10.9133C79.7944 11.373 80.196 11.9363 80.4657 12.5648C80.7354 13.1934 80.8668 13.8725 80.8511 14.5563V16.8153C80.8511 16.9506 80.8511 17.0858 80.8312 17.213L80.8511 21.914C80.8665 22.5944 80.734 23.2701 80.4628 23.8942C80.1916 24.5184 79.788 25.0763 79.2801 25.5292C78.2487 26.4493 76.8196 26.9212 74.9927 26.9451C73.1526 26.9186 71.7209 26.4413 70.6974 25.5133C69.8402 24.7473 69.2986 23.6897 69.1782 22.5464H72.8133C72.9195 22.7591 73.0622 22.9516 73.2348 23.1151C73.721 23.5531 74.3588 23.7842 75.0126 23.7594C75.6569 23.7889 76.2874 23.5664 76.7705 23.139C76.9891 22.9235 77.1601 22.6646 77.2725 22.3789C77.3848 22.0932 77.436 21.7872 77.4228 21.4805C76.6364 21.7271 75.8169 21.8518 74.9927 21.8504C73.1526 21.8239 71.7209 21.3479 70.6974 20.4226C70.1906 19.9624 69.7886 19.3985 69.5189 18.7692C69.2493 18.1399 69.1181 17.46 69.1344 16.7756V16.7716ZM72.5627 15.5228V16.2267C72.5397 16.5594 72.5877 16.8932 72.7036 17.2058C72.8195 17.5185 73.0006 17.803 73.2348 18.0403C73.7302 18.4531 74.3535 18.6812 74.9984 18.6856C75.6432 18.6899 76.2696 18.4703 76.7705 18.0642C76.989 17.8478 77.1599 17.5881 77.2723 17.3018C77.3846 17.0156 77.4358 16.709 77.4228 16.4017V15.0336C77.4337 14.7189 77.3797 14.4053 77.2641 14.1124C77.1484 13.8196 76.9736 13.5537 76.7506 13.3314C76.253 12.9217 75.6296 12.6958 74.985 12.6914C74.3405 12.6871 73.7141 12.9046 73.211 13.3075C72.9932 13.5242 72.823 13.784 72.7114 14.0703C72.5997 14.3566 72.5491 14.663 72.5627 14.9699V15.5228Z" fill="#F39200"/>
<path d="M105.107 6.78494C105.105 6.44384 105.204 6.10972 105.392 5.82496C105.58 5.5402 105.848 5.31762 106.162 5.18544C106.477 5.05327 106.823 5.01746 107.158 5.08255C107.493 5.14765 107.801 5.31071 108.043 5.55107C108.285 5.79143 108.45 6.09825 108.518 6.43263C108.585 6.767 108.552 7.11387 108.422 7.42924C108.292 7.74461 108.071 8.01427 107.788 8.20403C107.504 8.39379 107.171 8.4951 106.83 8.49511C106.373 8.49511 105.935 8.31367 105.612 7.99071C105.289 7.66776 105.107 7.22973 105.107 6.773" fill="#F39200"/>
</svg>
