<svg width="115" height="75" viewBox="0 0 115 75" fill="none" xmlns="http://www.w3.org/2000/svg">
<path d="M52.5364 31.6579C52.7774 32.1244 53.0923 32.5487 53.4688 32.9145C54.5798 33.8152 55.966 34.3066 57.3956 34.3066C58.8251 34.3066 60.2114 33.8152 61.3224 32.9145C61.7905 32.4435 62.1588 31.8827 62.4053 31.2658C62.6518 30.6488 62.7714 29.9884 62.7568 29.3241V28.8394C61.0152 29.3828 59.2019 29.6611 57.3776 29.6652C53.9194 29.8305 50.524 28.6974 47.8565 26.4878C46.7319 25.4708 45.8404 24.2222 45.2431 22.8279C44.6457 21.4335 44.3567 19.9262 44.3959 18.4095V16.9554H41.7422L48.1793 10.5287L54.5984 16.9554H51.9805V17.4042C51.9569 18.1012 52.0768 18.7956 52.3328 19.4442C52.5889 20.0927 52.9755 20.6816 53.4688 21.1741C54.5543 22.1342 55.9659 22.6417 57.4135 22.5922C58.8436 22.6602 60.2444 22.1713 61.3224 21.2279C62.1434 20.4073 62.6402 19.3169 62.7209 18.1582L66.576 21.9998L70.3414 18.212V18.4992C70.3414 18.7326 70.3414 18.948 70.3414 19.1634V30.2397C70.3838 31.7506 70.0942 33.2524 69.4932 34.639C68.8921 36.0256 67.9942 37.2631 66.8629 38.2641C64.1182 40.3154 60.7848 41.4236 57.3597 41.4236C53.9346 41.4236 50.6012 40.3154 47.8565 38.2641C45.955 36.5706 44.7529 34.2277 44.4856 31.6938L52.5364 31.6579Z" fill="#0069B4"/>
<path d="M70.3416 11.3545V12.7906H72.9953L66.5762 19.2352L60.1391 12.7906H62.7569V12.2879C62.7839 11.5906 62.6655 10.8952 62.4092 10.2461C62.153 9.59708 61.7646 9.00857 61.2687 8.51807C60.1918 7.5416 58.7758 7.02611 57.324 7.08196C55.897 7.01987 54.5018 7.51551 53.433 8.46422C52.5928 9.2732 52.0871 10.369 52.0165 11.5339L48.1794 7.67434L44.396 11.4622V11.1749C44.36 9.6675 44.6525 8.17027 45.2532 6.78755C45.854 5.40482 46.7485 4.16984 47.8746 3.1685C50.617 1.11171 53.9512 0 57.3778 0C60.8043 0 64.1386 1.11171 66.881 3.1685C68.006 4.189 68.8976 5.44068 69.4949 6.838C70.0921 8.23532 70.3809 9.7453 70.3416 11.2647" fill="#F39200"/>
<path d="M25.5866 48.8915C25.5866 48.4512 25.717 48.0208 25.9613 47.6547C26.2056 47.2887 26.5528 47.0034 26.9591 46.8349C27.3654 46.6664 27.8124 46.6223 28.2437 46.7082C28.675 46.7941 29.0712 47.0061 29.3821 47.3174C29.6931 47.6287 29.9048 48.0254 29.9906 48.4572C30.0764 48.889 30.0324 49.3366 29.8641 49.7433C29.6958 50.1501 29.4108 50.4977 29.0452 50.7423C28.6796 50.9869 28.2497 51.1175 27.8099 51.1175C27.2203 51.1175 26.6547 50.883 26.2378 50.4655C25.8208 50.048 25.5866 49.4819 25.5866 48.8915ZM17.3564 61.7808V52.3741H21.7853V61.2063C21.7738 61.6106 21.8441 62.0131 21.992 62.3894C22.1399 62.7658 22.3623 63.1084 22.6459 63.3964C23.2766 63.9567 24.0985 64.2524 24.9411 64.2222C25.7741 64.267 26.5915 63.9834 27.2182 63.4323C27.497 63.1498 27.7142 62.8125 27.8562 62.4418C27.9981 62.071 28.0618 61.6748 28.0431 61.2782V52.3023H32.4719V61.7808C32.4893 62.6563 32.3172 63.5251 31.9674 64.3277C31.6177 65.1303 31.0986 65.8476 30.4457 66.4303C28.8846 67.682 26.9209 68.3203 24.9231 68.2254C22.9177 68.3367 20.9427 67.6968 19.3826 66.4303C18.7275 65.8378 18.2075 65.1111 17.8578 64.2996C17.5082 63.488 17.3372 62.6106 17.3564 61.7269V61.7808ZM19.8129 48.8376C19.8129 48.3966 19.9438 47.9655 20.1889 47.5991C20.434 47.2326 20.7823 46.9473 21.1897 46.7794C21.597 46.6115 22.0449 46.5684 22.4767 46.6558C22.9085 46.7432 23.3046 46.9569 23.6148 47.27C23.9251 47.5832 24.1354 47.9815 24.2191 48.4144C24.3029 48.8474 24.2563 49.2955 24.0853 49.702C23.9142 50.1084 23.6265 50.4548 23.2585 50.6972C22.8905 50.9397 22.4589 51.0672 22.0184 51.0636C21.4318 51.0589 20.8709 50.8223 20.4578 50.4053C20.0447 49.9884 19.8129 49.4249 19.8129 48.8376Z" fill="#0069B4"/>
<path d="M39.1603 61.7988H41.1147L45.687 67.8306H50.9586L44.7188 59.7344L50.7076 52.5896H45.5077L41.1327 57.8315H39.1603V46.6655H34.7314V67.8306H39.1603V61.7988Z" fill="#0069B4"/>
<path d="M77.7471 55.6234C78.6016 55.6167 79.4362 55.8806 80.1319 56.3773C80.7856 56.8585 81.244 57.5597 81.4229 58.352H73.9459C74.1604 57.5568 74.6415 56.8595 75.3086 56.3773C76.0246 55.8807 76.8762 55.6174 77.7471 55.6234ZM81.9787 62.2116C81.5518 62.8344 80.9874 63.3504 80.3291 63.7196C79.6146 64.1109 78.8127 64.3147 77.9982 64.312C77.1138 64.3131 76.248 64.0575 75.5058 63.576C74.7816 63.1137 74.2472 62.4066 73.9996 61.5833H85.7442V60.2729C85.7928 59.1507 85.6182 58.0299 85.2303 56.9759C84.8425 55.9219 84.2492 54.9557 83.4849 54.1334C82.716 53.3901 81.8051 52.8098 80.8069 52.4273C79.8086 52.0448 78.7435 51.868 77.6754 51.9074C76.175 51.8943 74.6954 52.2585 73.3721 52.9665C72.1413 53.6484 71.114 54.6459 70.3956 55.8567C69.6438 57.1138 69.2587 58.5565 69.2839 60.0215C69.248 61.5823 69.6586 63.1208 70.4673 64.4556C71.2119 65.6519 72.2818 66.6109 73.5514 67.2202C74.9327 67.8676 76.4427 68.1927 77.9678 68.1709C79.4928 68.1492 80.993 67.7811 82.3553 67.0945C83.5385 66.4871 84.5452 65.5844 85.278 64.4735L81.9787 62.2116Z" fill="#F39200"/>
<path d="M88.3797 56.2696V61.8705C88.3672 62.8146 88.6087 63.7447 89.079 64.5632C89.4985 65.2697 90.0603 65.881 90.7286 66.3584C91.3428 66.8171 91.9969 67.2197 92.683 67.5612L93.992 68.2613L96.0361 64.6709L94.8347 64.0067C94.2469 63.7111 93.7277 63.2953 93.3106 62.786C92.9471 62.2601 92.7646 61.6299 92.7906 60.9909V56.3234H95.534V52.4279H92.7906V46.7192L88.3797 49.1966V52.4279H86.8735V56.3234L88.3797 56.2696Z" fill="#F39200"/>
<path d="M102.724 52.374H98.313V67.8304H102.724V52.374Z" fill="#F39200"/>
<path d="M109.394 60.7575C109.343 59.5061 109.766 58.2816 110.578 57.3287C111.321 56.5527 112.285 56.026 113.339 55.8208L114.738 55.5515L113.913 51.8175L112.64 52.033C111.946 52.1758 111.28 52.4304 110.667 52.7869C109.992 53.1795 109.444 53.7593 109.089 54.4564V52.374H104.983V67.8304H109.394V60.7575Z" fill="#F39200"/>
<path d="M0 61.7807V52.374H4.39298V61.2063C4.38061 61.6123 4.45227 62.0164 4.60348 62.3933C4.75468 62.7702 4.98215 63.1117 5.27158 63.3964C5.90127 63.9583 6.7238 64.2542 7.56669 64.2221C8.39386 64.2641 9.20465 63.9806 9.82594 63.4323C10.1079 63.1513 10.3285 62.8148 10.4735 62.4439C10.6186 62.073 10.6851 61.676 10.6687 61.2781V52.3022H15.1513V61.7807C15.1603 61.9482 15.1603 62.116 15.1513 62.2834V68.3511C15.1737 69.2299 15.004 70.1029 14.654 70.9092C14.304 71.7154 13.7822 72.4353 13.1252 73.0185C11.5272 74.2117 9.58706 74.8563 7.59359 74.8563C5.60013 74.8563 3.65996 74.2117 2.062 73.0185C0.95428 72.0346 0.256631 70.6698 0.107579 69.1948H4.78746C4.92996 69.4698 5.11789 69.7186 5.3433 69.9308C5.98497 70.4588 6.78986 70.7475 7.62049 70.7475C8.45112 70.7475 9.25599 70.4588 9.89766 69.9308C10.1796 69.6498 10.4002 69.3133 10.5452 68.9424C10.6903 68.5716 10.7568 68.1745 10.7404 67.7766C9.72217 68.0818 8.66543 68.239 7.60255 68.2434C5.59779 68.3494 3.62457 67.7101 2.062 66.4482C1.40639 65.8571 0.887151 65.1302 0.540357 64.318C0.193564 63.5058 0.0275374 62.6277 0.0537895 61.7448" fill="#0069B4"/>
<path d="M51.9088 61.7808V58.9623C51.8876 58.0837 52.0579 57.211 52.4078 56.4049C52.7577 55.5989 53.2788 54.8788 53.9349 54.2949C55.5329 53.1016 57.473 52.457 59.4665 52.457C61.46 52.457 63.4001 53.1016 64.9981 54.2949C65.6518 54.8875 66.1697 55.6146 66.5164 56.4265C66.863 57.2383 67.0301 58.1156 67.0063 58.9982V61.9243C67.0152 62.0918 67.0152 62.2596 67.0063 62.427V68.4947C67.0287 69.3735 66.859 70.2466 66.509 71.0528C66.159 71.8591 65.6372 72.579 64.9802 73.1621C63.3822 74.3554 61.442 75 59.4486 75C57.4551 75 55.5149 74.3554 53.917 73.1621C52.8162 72.1729 52.12 70.8109 51.9626 69.3384H56.6424C56.7849 69.6134 56.9729 69.8622 57.1983 70.0744C57.84 70.6025 58.6448 70.8912 59.4755 70.8912C60.3061 70.8912 61.111 70.6025 61.7526 70.0744C62.0346 69.7935 62.2552 69.4569 62.4002 69.086C62.5453 68.7152 62.6118 68.3182 62.5954 67.9202C61.5774 68.2266 60.5205 68.3839 59.4575 68.387C57.4528 68.493 55.4796 67.8537 53.917 66.5918C53.2642 65.9985 52.7469 65.2712 52.4003 64.4595C52.0538 63.6478 51.8861 62.7709 51.9088 61.8885V61.7808ZM56.3197 60.2728V61.1883C56.2952 61.6145 56.3607 62.041 56.5121 62.4401C56.6635 62.8391 56.8973 63.2017 57.1983 63.5041C57.828 64.066 58.6505 64.3619 59.4934 64.3299C60.3209 64.3737 61.1323 64.09 61.7526 63.54C62.0346 63.259 62.2552 62.9225 62.4002 62.5516C62.5453 62.1808 62.6118 61.7838 62.5954 61.3858V59.5906C62.608 59.1862 62.5381 58.7835 62.3902 58.4069C62.2422 58.0304 62.0192 57.688 61.7347 57.4005C61.1088 56.8305 60.2852 56.5278 59.4396 56.5568C58.6055 56.5263 57.7912 56.8152 57.1624 57.3646C56.8853 57.6454 56.6678 57.9794 56.5229 58.3465C56.3781 58.7136 56.309 59.1063 56.3197 59.5009V60.2728Z" fill="#F39200"/>
<path d="M98.2954 48.8914C98.2954 48.4512 98.4258 48.0208 98.6701 47.6547C98.9144 47.2886 99.2617 47.0033 99.6679 46.8348C100.074 46.6664 100.521 46.6223 100.953 46.7082C101.384 46.7941 101.78 47.0061 102.091 47.3174C102.402 47.6287 102.614 48.0254 102.699 48.4572C102.785 48.889 102.741 49.3365 102.573 49.7433C102.405 50.15 102.12 50.4977 101.754 50.7423C101.388 50.9869 100.959 51.1174 100.519 51.1174C100.227 51.1174 99.9377 51.0599 99.6679 50.948C99.3982 50.8361 99.1531 50.6721 98.9466 50.4654C98.7402 50.2587 98.5764 50.0134 98.4647 49.7433C98.3529 49.4732 98.2954 49.1838 98.2954 48.8914Z" fill="#F39200"/>
</svg>
