<svg width="20" height="20" viewBox="0 0 20 20" fill="none" xmlns="http://www.w3.org/2000/svg">
<path d="M10 18.75C5.16751 18.75 1.25 14.8325 1.25 10C1.25 5.16751 5.16751 1.25 10 1.25C14.8325 1.25 18.75 5.16751 18.75 10C18.75 14.8325 14.8325 18.75 10 18.75ZM10 20C15.5228 20 20 15.5228 20 10C20 4.47715 15.5228 0 10 0C4.47715 0 0 4.47715 0 10C0 15.5228 4.47715 20 10 20Z" fill="#0069B4"/>
<path d="M6.56889 7.23268C6.5594 7.40296 6.69988 7.54089 6.87042 7.54089H7.90103C8.07362 7.54089 8.21085 7.40016 8.23403 7.22914C8.34523 6.40898 8.90813 5.81116 9.91152 5.81116C10.7685 5.81116 11.554 6.23962 11.554 7.27112C11.554 8.06458 11.0858 8.42957 10.3479 8.98499C9.50686 9.59595 8.84036 10.3101 8.88796 11.4685L8.89168 11.7395C8.89402 11.9104 9.03323 12.0477 9.20415 12.0477H10.2179C10.3905 12.0477 10.5304 11.9078 10.5304 11.7352V11.6034C10.5304 10.7068 10.8716 10.4449 11.792 9.7467C12.5537 9.16748 13.3472 8.52478 13.3472 7.1759C13.3472 5.28748 11.7523 4.375 10.0067 4.375C8.42289 4.375 6.68705 5.11326 6.56889 7.23268ZM8.51504 14.436C8.51504 15.1025 9.04666 15.5945 9.77664 15.5945C10.5384 15.5945 11.062 15.1025 11.062 14.436C11.062 13.7457 10.5384 13.2617 9.77664 13.2617C9.04666 13.2617 8.51504 13.7457 8.51504 14.436Z" fill="#0069B4"/>
</svg>
