<svg width="16" height="18" viewBox="0 0 16 18" fill="none" xmlns="http://www.w3.org/2000/svg">
<path fill-rule="evenodd" clip-rule="evenodd" d="M7.87273 3.56418C6.45455 3.56472 5.07472 4.02472 3.93991 4.87526C2.80509 5.7258 1.97638 6.92111 1.57789 8.28216C1.17941 9.6432 1.2326 11.0967 1.7295 12.425C2.2264 13.7533 3.14026 14.8848 4.33421 15.6501C5.52816 16.4155 6.93792 16.7734 8.35234 16.6703C9.76677 16.5671 11.1097 16.0086 12.18 15.0782C13.2504 14.1478 13.9905 12.8957 14.2895 11.5094C14.5885 10.1231 14.4303 8.67721 13.8387 7.38835C13.7743 7.23165 13.773 7.05611 13.835 6.89848C13.8971 6.74085 14.0178 6.61333 14.1717 6.54263C14.3257 6.47192 14.501 6.46351 14.661 6.51914C14.8211 6.57477 14.9534 6.69014 15.0303 6.8411C15.7402 8.38782 15.93 10.1229 15.571 11.7865C15.2121 13.4501 14.3239 14.9526 13.0393 16.069C11.7548 17.1855 10.1431 17.8556 8.44576 17.9792C6.74838 18.1028 5.05664 17.673 3.62397 16.7544C2.1913 15.8358 1.09481 14.4778 0.498746 12.8837C-0.0973192 11.2896 -0.160873 9.54535 0.317606 7.91212C0.796085 6.27889 1.79084 4.84465 3.15286 3.82422C4.51488 2.8038 6.17086 2.25212 7.87273 2.25183V3.56418Z" fill="#868A9A"/>
<path d="M7.87256 5.4881V0.327963C7.87258 0.265622 7.89037 0.204578 7.92383 0.151979C7.95729 0.0993805 8.00505 0.0574041 8.06151 0.0309656C8.11796 0.0045271 8.18078 -0.00527901 8.24261 0.00269547C8.30444 0.0106699 8.36272 0.0360949 8.41062 0.0759932L11.5078 2.65606C11.6652 2.7873 11.6652 3.02877 11.5078 3.16L8.41062 5.74007C8.36272 5.77997 8.30444 5.8054 8.24261 5.81337C8.18078 5.82135 8.11796 5.81154 8.06151 5.7851C8.00505 5.75866 7.95729 5.71669 7.92383 5.66409C7.89037 5.61149 7.87258 5.55045 7.87256 5.4881Z" fill="#868A9A"/>
</svg>
