<svg width="18" height="18" viewBox="0 0 18 18" fill="none" xmlns="http://www.w3.org/2000/svg">
<path fill-rule="evenodd" clip-rule="evenodd" d="M6.75 3.9375C6.75 3.62684 7.00184 3.375 7.3125 3.375L16.3125 3.375C16.6232 3.375 16.875 3.62684 16.875 3.9375V14.0625C16.875 14.3732 16.6232 14.625 16.3125 14.625H7.3125C7.00184 14.625 6.75 14.3732 6.75 14.0625V11.8125C6.75 11.5018 6.49816 11.25 6.1875 11.25C5.87684 11.25 5.625 11.5018 5.625 11.8125V14.0625C5.625 14.9945 6.38052 15.75 7.3125 15.75H16.3125C17.2445 15.75 18 14.9945 18 14.0625V3.9375C18 3.00552 17.2445 2.25 16.3125 2.25L7.3125 2.25C6.38052 2.25 5.625 3.00552 5.625 3.9375V6.1875C5.625 6.49816 5.87684 6.75 6.1875 6.75C6.49816 6.75 6.75 6.49816 6.75 6.1875V3.9375Z" fill="#F39200"/>
<path fill-rule="evenodd" clip-rule="evenodd" d="M13.3352 9.39775C13.5549 9.17808 13.5549 8.82192 13.3352 8.60225L9.96025 5.22725C9.74058 5.00758 9.38442 5.00758 9.16475 5.22725C8.94508 5.44692 8.94508 5.80308 9.16475 6.02275L11.5795 8.4375H1.6875C1.37684 8.4375 1.125 8.68934 1.125 9C1.125 9.31066 1.37684 9.5625 1.6875 9.5625H11.5795L9.16475 11.9773C8.94508 12.1969 8.94508 12.5531 9.16475 12.7727C9.38442 12.9924 9.74058 12.9924 9.96025 12.7727L13.3352 9.39775Z" fill="#F39200"/>
</svg>
