<svg width="41" height="22" viewBox="0 0 41 22" fill="currentColor" xmlns="http://www.w3.org/2000/svg">
<path d="M19.5215 2.45153C21.9896 3.99637e-06 25.9642 3.99637e-06 28.4323 2.45153L38.4649 12.4169V11.5254L28.8811 2.0058C27.5669 0.700436 25.836 0 23.9769 0C22.1179 0 20.387 0.700436 19.0728 2.0058L9.55298 11.4617V12.3532L19.5215 2.45153Z" fill="currentColor"/>
<path d="M20.0663 22C21.6241 22 22.887 20.7456 22.887 19.1983C22.887 17.6509 21.6241 16.3965 20.0663 16.3965C18.5085 16.3965 17.2456 17.6509 17.2456 19.1983C17.2456 20.7456 18.5085 22 20.0663 22Z" fill="currentColor"/>
<path d="M27.952 22C29.5098 22 30.7727 20.7456 30.7727 19.1983C30.7727 17.6509 29.5098 16.3965 27.952 16.3965C26.3942 16.3965 25.1313 17.6509 25.1313 19.1983C25.1313 20.7456 26.3942 22 27.952 22Z" fill="currentColor"/>
<path d="M40.805 15.3778H19.4255H18.3998H7.18115V19.1984H16.6689C16.6689 17.3518 18.1754 15.8554 20.0666 15.8554C21.9256 15.8554 23.4321 17.3518 23.4321 19.1984H24.554C24.554 17.3518 26.0605 15.8554 27.9516 15.8554C29.8107 15.8554 31.3172 17.3518 31.3172 19.1984H40.805V15.3778Z" fill="currentColor"/>
<path d="M4.29688 14.8047L7.18167 19.1984V15.3778L5.89953 13.4357H4.61741L4.29688 14.8047Z" fill="currentColor"/>
<path d="M5.11123 13.9615H0V14.8077H5.11123V13.9615Z" fill="currentColor"/>
<path d="M2.50494 11.8461C2.0562 11.8461 1.70361 12.1963 1.70361 12.6421V13.0878H3.27421V12.6421C3.27421 12.1963 2.92163 11.8461 2.50494 11.8461Z" fill="currentColor"/>
<path d="M38.4649 7.86377H9.55298V9.58303H38.4649V7.86377Z" fill="currentColor"/>
<path d="M38.4649 10.7611H9.55298V12.4804H38.4649V10.7611Z" fill="currentColor"/>
<path d="M40.8053 6.52686H38.4333V15.3779H40.8053V6.52686Z" fill="currentColor"/>
<path d="M9.55308 6.52686H7.18115V15.3779H9.55308V6.52686Z" fill="currentColor"/>
<path d="M25.1947 6.52686H22.8228V15.3779H25.1947V6.52686Z" fill="currentColor"/>
</svg>
