<svg width="21" height="21" viewBox="0 0 21 21" fill="none" xmlns="http://www.w3.org/2000/svg">
<path d="M7.00605 2.08798C5.58068 2.47435 4.13718 2.93114 3.28285 3.20991C3.0478 3.28661 2.88274 3.49016 2.85175 3.72275C2.12479 9.17817 3.80446 13.16 5.80866 15.7819C6.8149 17.0983 7.90364 18.0719 8.81128 18.7119C9.26547 19.0322 9.66699 19.2638 9.98249 19.4123C10.1404 19.4867 10.2696 19.5368 10.3678 19.5672C10.4486 19.5923 10.4901 19.5982 10.5 19.5996C10.5099 19.5982 10.5514 19.5923 10.6323 19.5672C10.7304 19.5368 10.8596 19.4867 11.0175 19.4123C11.333 19.2638 11.7345 19.0322 12.1887 18.7119C13.0964 18.0719 14.1851 17.0983 15.1913 15.7819C17.1955 13.16 18.8752 9.17817 18.1483 3.72275C18.1173 3.49016 17.9522 3.28661 17.7172 3.20991C16.8628 2.93113 15.4193 2.47435 13.994 2.08798C12.5366 1.69293 11.1967 1.4 10.5 1.4C9.80326 1.4 8.4634 1.69293 7.00605 2.08798ZM6.65655 0.734544C8.08157 0.348263 9.59504 0 10.5 0C11.405 0 12.9184 0.348263 14.3435 0.734544C15.8005 1.12949 17.2684 1.59417 18.1318 1.87593C18.8524 2.11107 19.3975 2.74784 19.5021 3.53337C20.2852 9.40986 18.4694 13.764 16.2671 16.6451C15.1701 18.0802 13.9778 19.1499 12.9634 19.8652C12.4566 20.2226 11.9869 20.4967 11.588 20.6845C11.2194 20.858 10.8251 21 10.5 21C10.1749 21 9.78057 20.858 9.412 20.6845C9.01311 20.4967 8.54338 20.2226 8.03656 19.8652C7.02219 19.1499 5.8299 18.0802 4.73288 16.6451C2.53055 13.764 0.714798 9.40986 1.49787 3.53337C1.60254 2.74784 2.14758 2.11107 2.86818 1.87593C3.73165 1.59417 5.19955 1.12949 6.65655 0.734544Z" fill="#0069B4"/>
<path d="M14.2453 6.75471C14.5016 7.01099 14.5016 7.42651 14.2453 7.68279L10.3078 11.6203C10.1847 11.7434 10.0178 11.8125 9.84375 11.8125C9.6697 11.8125 9.50278 11.7434 9.37971 11.6203L7.41096 9.65154C7.15468 9.39526 7.15468 8.97974 7.41096 8.72346C7.66724 8.46718 8.08276 8.46718 8.33904 8.72346L9.84375 10.2282L13.3172 6.75471C13.5735 6.49843 13.989 6.49843 14.2453 6.75471Z" fill="#0069B4"/>
</svg>
