<svg width="93" height="22" viewBox="0 0 93 22" fill="currentColor" xmlns="http://www.w3.org/2000/svg">
<path d="M0.995679 2.40271H65.8559C66.4204 2.40271 66.8774 2.88329 66.8774 3.44398V15.245C66.8774 15.8324 66.4204 16.2862 65.8559 16.2862H54.2977C54.1096 16.2862 53.8677 16.393 53.7601 16.5266L51.2066 19.3299C51.0991 19.4635 50.8303 19.5702 50.669 19.5702H21.6929C21.5048 19.5702 21.2629 19.4635 21.1553 19.3299L18.6018 16.5266C18.4943 16.393 18.2255 16.2862 18.0642 16.2862H1.02256C0.458088 16.2862 0.00112814 15.8056 0.00112814 15.245V3.44398C-0.025751 2.85659 0.431204 2.40271 0.995679 2.40271Z" fill="currentColor"/>
<path d="M57.0395 20.2647C56.6089 20.2647 56.26 19.918 56.26 19.4904C56.26 19.0628 56.6089 18.7162 57.0395 18.7162C57.47 18.7162 57.819 19.0628 57.819 19.4904C57.819 19.918 57.47 20.2647 57.0395 20.2647Z" fill="currentColor"/>
<path d="M57.0389 16.9271C58.4635 16.9271 59.5924 18.0752 59.5924 19.4635C59.5924 20.8786 58.4366 22 57.0389 22C55.6143 22 54.4854 20.8519 54.4854 19.4635C54.4854 18.0752 55.6411 16.9271 57.0389 16.9271ZM57.0389 21.0121C57.899 21.0121 58.5979 20.3179 58.5979 19.4902C58.5979 18.6358 57.899 17.9684 57.0389 17.9684C56.1787 17.9684 55.4799 18.6626 55.4799 19.4902C55.4799 20.3179 56.1787 21.0121 57.0389 21.0121Z" fill="currentColor"/>
<path d="M15.2953 20.2647C14.8649 20.2647 14.5159 19.918 14.5159 19.4904C14.5159 19.0628 14.8649 18.7162 15.2953 18.7162C15.7259 18.7162 16.0749 19.0628 16.0749 19.4904C16.0749 19.918 15.7259 20.2647 15.2953 20.2647Z" fill="currentColor"/>
<path d="M15.2947 16.9271C16.7194 16.9271 17.8483 18.0752 17.8483 19.4635C17.8483 20.8786 16.6925 22 15.2947 22C13.8701 22 12.7412 20.8519 12.7412 19.4635C12.7412 18.0752 13.8701 16.9271 15.2947 16.9271ZM15.2947 21.0121C16.1549 21.0121 16.8538 20.3179 16.8538 19.4902C16.8538 18.6358 16.1549 17.9684 15.2947 17.9684C14.4346 17.9684 13.7357 18.6626 13.7357 19.4902C13.7357 20.3179 14.4346 21.0121 15.2947 21.0121Z" fill="currentColor"/>
<path d="M9.7041 20.2647C9.27356 20.2647 8.92456 19.918 8.92456 19.4904C8.92456 19.0628 9.27356 18.7162 9.7041 18.7162C10.1346 18.7162 10.4836 19.0628 10.4836 19.4904C10.4836 19.918 10.1346 20.2647 9.7041 20.2647Z" fill="currentColor"/>
<path d="M9.70473 16.9271C11.1293 16.9271 12.2583 18.0752 12.2583 19.4635C12.2583 20.8786 11.1024 22 9.70473 22C8.28004 22 7.15112 20.8519 7.15112 19.4635C7.15112 18.0752 8.30696 16.9271 9.70473 16.9271ZM9.70473 21.0121C10.5648 21.0121 11.2637 20.3179 11.2637 19.4902C11.2637 18.6358 10.5648 17.9684 9.70473 17.9684C8.84458 17.9684 8.14566 18.6626 8.14566 19.4902C8.14566 20.3179 8.84458 21.0121 9.70473 21.0121Z" fill="currentColor"/>
<path d="M4.14083 20.2647C3.71032 20.2647 3.36133 19.918 3.36133 19.4904C3.36133 19.0628 3.71032 18.7162 4.14083 18.7162C4.57134 18.7162 4.92035 19.0628 4.92035 19.4904C4.92035 19.918 4.57134 20.2647 4.14083 20.2647Z" fill="currentColor"/>
<path d="M4.14023 16.9271C5.56484 16.9271 6.69378 18.0752 6.69378 19.4635C6.69378 20.8786 5.53796 22 4.14023 22C2.71561 22 1.58667 20.8519 1.58667 19.4635C1.58667 18.0752 2.74249 16.9271 4.14023 16.9271ZM4.14023 21.0121C5.00037 21.0121 5.69924 20.3179 5.69924 19.4902C5.69924 18.6358 5.00037 17.9684 4.14023 17.9684C3.28008 17.9684 2.58122 18.6626 2.58122 19.4902C2.58122 20.3179 3.28008 21.0121 4.14023 21.0121Z" fill="currentColor"/>
<path d="M87.0097 20.2647C86.579 20.2647 86.2297 19.918 86.2297 19.4904C86.2297 19.0628 86.579 18.7162 87.0097 18.7162C87.4397 18.7162 87.789 19.0628 87.789 19.4904C87.789 19.918 87.4397 20.2647 87.0097 20.2647Z" fill="currentColor"/>
<path d="M87.0094 16.9271C88.434 16.9271 89.5632 18.0752 89.5632 19.4635C89.5632 20.8786 88.4071 22 87.0094 22C85.5848 22 84.4555 20.8519 84.4555 19.4635C84.4286 18.0752 85.5848 16.9271 87.0094 16.9271ZM87.0094 21.0121C87.8694 21.0121 88.5686 20.3179 88.5686 19.4902C88.5686 18.6358 87.8694 17.9684 87.0094 17.9684C86.1494 17.9684 85.4502 18.6626 85.4502 19.4902C85.4502 20.3179 86.1494 21.0121 87.0094 21.0121Z" fill="currentColor"/>
<path d="M62.6029 20.2647C62.1725 20.2647 61.8235 19.918 61.8235 19.4904C61.8235 19.0628 62.1725 18.7162 62.6029 18.7162C63.0335 18.7162 63.3825 19.0628 63.3825 19.4904C63.3825 19.918 63.0335 20.2647 62.6029 20.2647Z" fill="currentColor"/>
<path d="M62.6033 16.9271C64.0279 16.9271 65.1569 18.0752 65.1569 19.4635C65.1569 20.8786 64.0011 22 62.6033 22C61.1787 22 60.0498 20.8519 60.0498 19.4635C60.0498 18.0752 61.2056 16.9271 62.6033 16.9271ZM62.6033 21.0121C63.4635 21.0121 64.1623 20.3179 64.1623 19.4902C64.1623 18.6358 63.4635 17.9684 62.6033 17.9684C61.7432 17.9684 61.0443 18.6626 61.0443 19.4902C61.0443 20.3179 61.7432 21.0121 62.6033 21.0121Z" fill="currentColor"/>
<path d="M70.3991 16.6336H69.6733C69.4314 16.6336 69.2432 16.4466 69.2432 16.2064V2.24272C69.2432 2.05583 69.1357 1.81554 69.0282 1.68205L67.7918 0.240291C67.6843 0.106795 67.738 0 67.8992 0H68.8401C69.0282 0 69.2702 0.106795 69.3776 0.240291L70.6141 1.68205C70.7216 1.81554 70.8292 2.08253 70.8292 2.24272V16.2064C70.856 16.4466 70.6679 16.6336 70.3991 16.6336Z" fill="currentColor"/>
<path d="M71.501 17.0605C71.6892 17.0605 71.8236 16.8736 71.8236 16.66V5.95366C71.8236 5.76676 71.958 5.63327 72.1461 5.63327H72.0923C71.958 5.63327 71.8236 5.52647 71.8236 5.36628V2.64297C71.8236 2.50947 71.9311 2.37598 72.0923 2.37598H73.8396C74.1889 2.37598 74.3771 2.45608 74.6459 2.58957L81.0972 5.28618C81.3118 5.36628 81.4195 5.47307 81.3926 5.52647C81.3926 5.57987 81.2849 5.63327 81.0165 5.63327H81.2041C81.3926 5.63327 81.608 5.76677 81.7149 5.90026L82.4949 7.10172C82.4141 7.18182 82.3872 7.28861 82.4411 7.36871L83.6772 9.63813C83.9464 10.1187 84.4572 10.9197 84.9949 11.0265L91.0964 12.1746C91.6341 12.2814 92.0641 12.7887 92.0641 13.3226V15.512C91.9295 15.5386 91.8487 15.6187 91.8487 15.7256V16.9537C91.8487 17.0605 91.9295 17.1406 92.0641 17.1673V17.3809C92.0641 17.7013 92.3326 17.8081 92.4403 18.0216C92.6018 18.3153 92.521 19.0363 92.4403 19.1964C92.3595 19.3566 92.3057 19.5168 91.6603 19.5168H89.8864C89.8864 17.9416 88.5964 16.6333 86.9834 16.6333C85.4518 16.6333 84.188 17.8348 84.1072 19.3299V20.3178C84.1072 20.3445 84.0803 20.3712 84.0534 20.3712C84.0272 20.3712 84.0003 20.3445 83.9734 20.3178L83.6234 19.41C83.5964 19.3033 83.4626 19.2231 83.3549 19.2231H65.7757C65.5875 19.2231 65.4531 19.0896 65.4531 18.9027C65.4531 18.9027 65.4531 17.7546 65.4531 17.4076C65.4531 17.2207 65.5875 17.0872 65.7488 17.0872H71.501V17.0605ZM78.0057 12.762C78.0057 12.8954 78.1134 13.0022 78.248 13.0022H78.9195C79.0542 13.0022 79.1618 12.8954 79.1618 12.762V12.5217C79.1618 12.3881 79.0542 12.2814 78.9195 12.2814H78.248C78.1134 12.2814 78.0057 12.3881 78.0057 12.5217V12.762ZM77.4949 10.626C77.4949 10.893 77.6565 11.0799 77.8449 11.0799H80.9088C81.0972 11.0799 81.2849 11.1867 81.3926 11.4003L82.2526 13.029C82.3872 13.2425 82.6026 13.2425 82.7903 13.2425H83.4357C83.6234 13.2425 83.7849 13.0823 83.7849 12.842V11.0799C83.7849 10.8129 83.758 10.626 83.6503 10.4124L82.0918 7.50221C81.9841 7.28861 81.7418 7.10172 81.5541 7.10172H77.8449C77.6565 7.10172 77.4949 7.31531 77.4949 7.5556V10.626ZM72.845 10.9197C72.845 11.0532 72.9525 11.1867 73.1138 11.1867H76.0706C76.2049 11.1867 76.3396 11.0799 76.3396 10.9197V10.5726C76.3396 10.4391 76.2318 10.3056 76.0706 10.3056H73.1138C72.9794 10.3056 72.845 10.4124 72.845 10.5726V10.9197ZM72.845 9.37113C72.845 9.50467 72.9525 9.63813 73.1138 9.63813H76.0706C76.2049 9.63813 76.3396 9.53136 76.3396 9.37113V9.02405C76.3396 8.89059 76.2318 8.75705 76.0706 8.75705H73.1138C72.9794 8.75705 72.845 8.8639 72.845 9.02405V9.37113ZM72.845 7.8226C72.845 7.95606 72.9525 8.0896 73.1138 8.0896H76.0706C76.2049 8.0896 76.3396 7.98283 76.3396 7.8226V7.47552C76.3396 7.34201 76.2318 7.20852 76.0706 7.20852H73.1138C72.9794 7.20852 72.845 7.31531 72.845 7.47552V7.8226Z" fill="currentColor"/>
</svg>
