<svg width="19" height="19" viewBox="0 0 19 19" fill="none" xmlns="http://www.w3.org/2000/svg">
<path d="M5.9375 13.0625C5.9375 13.7183 5.40584 14.25 4.75 14.25C4.09416 14.25 3.5625 13.7183 3.5625 13.0625C3.5625 12.4067 4.09416 11.875 4.75 11.875C5.40584 11.875 5.9375 12.4067 5.9375 13.0625Z" fill="#0069B4"/>
<path d="M15.4375 13.0625C15.4375 13.7183 14.9058 14.25 14.25 14.25C13.5942 14.25 13.0625 13.7183 13.0625 13.0625C13.0625 12.4067 13.5942 11.875 14.25 11.875C14.9058 11.875 15.4375 12.4067 15.4375 13.0625Z" fill="#0069B4"/>
<path d="M8.3125 11.875C7.65666 11.875 7.125 12.4067 7.125 13.0625C7.125 13.7183 7.65666 14.25 8.3125 14.25H10.6875C11.3433 14.25 11.875 13.7183 11.875 13.0625C11.875 12.4067 11.3433 11.875 10.6875 11.875H8.3125Z" fill="#0069B4"/>
<path fill-rule="evenodd" clip-rule="evenodd" d="M4.75 2.375C4.09416 2.375 3.5625 2.90666 3.5625 3.5625V8.19447C3.5625 8.9359 4.2301 9.49017 4.95179 9.37364C6.027 9.20003 8.06581 8.90625 9.5 8.90625C10.9342 8.90625 12.973 9.20003 14.0482 9.37364C14.7699 9.49017 15.4375 8.9359 15.4375 8.19447V3.5625C15.4375 2.90666 14.9058 2.375 14.25 2.375H4.75ZM4.75 3.5625H14.25V8.19447C14.25 8.1965 14.2497 8.19518 14.25 8.19447C14.25 8.19443 14.2495 8.1967 14.2475 8.19838C14.2455 8.20008 14.2435 8.20097 14.2423 8.20132C14.2417 8.20148 14.2406 8.20182 14.2375 8.20132C13.1664 8.02838 11.041 7.71875 9.5 7.71875C7.95901 7.71875 5.83359 8.02838 4.7625 8.20132C4.75944 8.20182 4.75832 8.20149 4.75774 8.20133C4.75653 8.20098 4.75453 8.20008 4.75252 8.19838C4.75052 8.1967 4.74988 8.1954 4.74989 8.19544C4.75023 8.19615 4.74989 8.19747 4.74989 8.19544L4.75 3.5625Z" fill="#0069B4"/>
<path fill-rule="evenodd" clip-rule="evenodd" d="M1.1875 2.96875C1.1875 1.32915 2.51665 0 4.15625 0H14.8438C16.4833 0 17.8125 1.32915 17.8125 2.96875V13.6562C17.8125 14.6275 17.3461 15.4898 16.625 16.0315V18.4062C16.625 18.7342 16.3592 19 16.0312 19H13.6562C13.3283 19 13.0625 18.7342 13.0625 18.4062V16.625H5.9375V18.4062C5.9375 18.7342 5.67167 19 5.34375 19H2.96875C2.64083 19 2.375 18.7342 2.375 18.4062V16.0315C1.65392 15.4898 1.1875 14.6275 1.1875 13.6562V2.96875ZM4.15625 1.1875C3.17249 1.1875 2.375 1.98499 2.375 2.96875V13.6562C2.375 14.64 3.17249 15.4375 4.15625 15.4375H14.8438C15.8275 15.4375 16.625 14.64 16.625 13.6562V2.96875C16.625 1.98499 15.8275 1.1875 14.8438 1.1875H4.15625Z" fill="#0069B4"/>
</svg>
