<svg width="15" height="15" viewBox="0 0 15 15" fill="none" xmlns="http://www.w3.org/2000/svg">
<path d="M0 3.28125C0 2.5046 0.6296 1.875 1.40625 1.875H9.84375C10.6204 1.875 11.25 2.5046 11.25 3.28125V4.6875H12.2057C12.6329 4.6875 13.0369 4.88169 13.3038 5.21527L14.6918 6.95038C14.8913 7.19973 15 7.50954 15 7.82886V9.84375C15 10.6204 14.3704 11.25 13.5938 11.25H13.125C13.125 12.2855 12.2855 13.125 11.25 13.125C10.2145 13.125 9.375 12.2855 9.375 11.25H4.6875C4.6875 12.2855 3.84803 13.125 2.8125 13.125C1.77697 13.125 0.9375 12.2855 0.9375 11.25C0.9375 11.2234 0.938054 11.1969 0.939152 11.1706C0.392105 10.978 0 10.4567 0 9.84375V3.28125ZM1.21308 10.271C1.54277 9.73351 2.13577 9.375 2.8125 9.375C3.50651 9.375 4.11246 9.75206 4.43666 10.3125H9.62584C9.7905 10.0278 10.0278 9.7905 10.3125 9.62584V3.28125C10.3125 3.02237 10.1026 2.8125 9.84375 2.8125H1.40625C1.14737 2.8125 0.9375 3.02237 0.9375 3.28125V9.84375C0.9375 10.0338 1.05056 10.1974 1.21308 10.271ZM11.25 9.375C11.944 9.375 12.55 9.75206 12.8742 10.3125H13.5938C13.8526 10.3125 14.0625 10.1026 14.0625 9.84375V7.82886C14.0625 7.72242 14.0263 7.61915 13.9598 7.53603L12.5717 5.80092C12.4827 5.68973 12.3481 5.625 12.2057 5.625H11.25V9.375ZM2.8125 10.3125C2.29473 10.3125 1.875 10.7322 1.875 11.25C1.875 11.7678 2.29473 12.1875 2.8125 12.1875C3.33027 12.1875 3.75 11.7678 3.75 11.25C3.75 10.7322 3.33027 10.3125 2.8125 10.3125ZM11.25 10.3125C10.7322 10.3125 10.3125 10.7322 10.3125 11.25C10.3125 11.7678 10.7322 12.1875 11.25 12.1875C11.7678 12.1875 12.1875 11.7678 12.1875 11.25C12.1875 10.7322 11.7678 10.3125 11.25 10.3125Z" fill="#0069B4"/>
</svg>
